<?xml version="1.0" encoding="UTF-8"?>
<svg version="1.1" xmlns="http://www.w3.org/2000/svg" width="600" height="600">
<path d="M0 0 C10.83525968 9.69960531 18.9906157 22.07668315 20.57519531 36.84814453 C20.7090573 39.77079786 20.73226294 42.67219378 20.7109375 45.59765625 C20.73091797 46.57412109 20.75089844 47.55058594 20.77148438 48.55664062 C20.76601125 56.73896867 18.88694646 64.08344963 13.0234375 70.09765625 C7.10600609 75.64112359 -0.44504157 78.67471805 -7.7265625 82.03515625 C-21.55307331 88.43285261 -29.76386981 94.49782735 -35.54296875 109.09765625 C-40.46663402 125.62464456 -32.69602498 141.18892862 -25.90478516 155.87280273 C-20.64026563 167.39019558 -17.93367683 178.44464746 -20.7265625 191.03515625 C-20.03433594 191.12152344 -19.34210937 191.20789063 -18.62890625 191.296875 C3.78869911 194.5162676 21.62018073 204.58677754 35.3125 222.73828125 C38.78259576 228.1741948 40.75171134 233.79498424 42.2734375 240.03515625 C42.45777344 240.70804688 42.64210938 241.3809375 42.83203125 242.07421875 C45.89578669 255.68488451 38.77477442 269.02155299 33.2734375 281.03515625 C26.83187671 295.15482744 22.36136539 307.91500782 27.8984375 323.28515625 C34.64592893 338.23643223 46.88639467 344.0972532 61.16210938 350.53515625 C69.19810765 354.25525672 76.33657023 357.77404825 80.1484375 366.16015625 C80.53773438 366.98773438 80.92703125 367.8153125 81.328125 368.66796875 C82.75510786 372.24132253 83.40011855 375.3756074 83.40625 379.22265625 C83.40753906 380.00382812 83.40882813 380.785 83.41015625 381.58984375 C83.40628906 382.39679688 83.40242187 383.20375 83.3984375 384.03515625 C83.40230469 384.84210938 83.40617188 385.6490625 83.41015625 386.48046875 C83.40822266 387.65222656 83.40822266 387.65222656 83.40625 388.84765625 C83.40512207 389.55535156 83.40399414 390.26304687 83.40283203 390.9921875 C83.26855252 393.11228358 82.85060248 394.99473188 82.2734375 397.03515625 C83.06363281 397.04933594 83.85382813 397.06351562 84.66796875 397.078125 C105.89762594 397.97583622 126.19767089 404.70625177 141.2734375 420.03515625 C141.881875 420.56238281 142.4903125 421.08960938 143.1171875 421.6328125 C154.00776619 431.31057675 160.03745203 447.156 166.25292969 460.0703125 C172.24259051 472.442985 179.06849123 480.96576511 192.2734375 486.03515625 C209.60989796 491.68221177 224.660019 483.75910417 239.97753906 476.44433594 C253.50955126 470.06998925 266.00110211 468.04186044 280.2734375 473.03515625 C288.36742014 476.17188204 294.09537699 481.03480645 300.2734375 487.03515625 C300.90121094 487.58945312 301.52898437 488.14375 302.17578125 488.71484375 C310.39786621 496.20980555 315.21074213 505.90307474 318.7109375 516.28515625 C318.95787354 517.01710205 319.20480957 517.74904785 319.45922852 518.50317383 C321.09010331 523.67351755 321.80919992 528.63505938 322.2734375 534.03515625 C322.99402344 533.8753125 323.71460938 533.71546875 324.45703125 533.55078125 C338.25083171 531.02542527 350.56181901 535.80744052 362.8984375 541.53515625 C377.01212265 548.03987422 390.34663342 553.50122542 405.87109375 548.06640625 C419.99624467 542.00292683 426.09331668 533.13788859 431.98413086 519.42480469 C436.6101075 508.72254522 442.16321758 500.1590838 452.3984375 494.22265625 C464.73655451 489.59586237 480.34043004 492.24638001 492.2734375 497.03515625 C505.29994634 503.37458755 515.28671623 513.06703517 520.0859375 526.84765625 C525.10056584 543.04642538 523.61222327 564.01879895 518.2734375 580.03515625 C325.2234375 580.03515625 132.1734375 580.03515625 -66.7265625 580.03515625 C-66.7265625 386.98515625 -66.7265625 193.93515625 -66.7265625 -4.96484375 C-45.77578985 -9.79963744 -18.43045486 -14.41984092 0 0 Z " fill="#f3f1f2" transform="translate(66.7265625,19.96484375)"/>
<path d="M0 0 C2.53052805 2.24765936 4.9707362 4.56400606 7.3984375 6.921875 C8.34009766 7.75332031 8.34009766 7.75332031 9.30078125 8.6015625 C17.52286621 16.0965243 22.33574213 25.78979349 25.8359375 36.171875 C26.08287354 36.9038208 26.32980957 37.6357666 26.58422852 38.38989258 C28.21510331 43.5602363 28.93419992 48.52177813 29.3984375 53.921875 C30.47931641 53.68210937 30.47931641 53.68210937 31.58203125 53.4375 C45.37583171 50.91214402 57.68681901 55.69415927 70.0234375 61.421875 C84.13712265 67.92659297 97.47163342 73.38794417 112.99609375 67.953125 C127.12124467 61.88964558 133.21831668 53.02460734 139.10913086 39.31152344 C143.7351075 28.60926397 149.28821758 20.04580255 159.5234375 14.109375 C171.86155451 9.48258112 187.46543004 12.13309876 199.3984375 16.921875 C212.42494634 23.2613063 222.41171623 32.95375392 227.2109375 46.734375 C232.22556584 62.93314413 230.73722327 83.9055177 225.3984375 99.921875 C99.9984375 99.921875 -25.4015625 99.921875 -154.6015625 99.921875 C-153.9415625 98.601875 -153.2815625 97.281875 -152.6015625 95.921875 C-152.6015625 94.931875 -152.6015625 93.941875 -152.6015625 92.921875 C-151.9415625 92.921875 -151.2815625 92.921875 -150.6015625 92.921875 C-151.1584375 91.931875 -151.7153125 90.941875 -152.2890625 89.921875 C-153.33067322 87.55065059 -153.71638292 86.39361783 -153.09765625 83.8515625 C-152.52010626 82.4892697 -151.92384039 81.13475089 -151.30859375 79.7890625 C-150.34602584 77.24703232 -150.73209088 75.45124697 -151.6015625 72.921875 C-152.0965625 73.911875 -152.0965625 73.911875 -152.6015625 74.921875 C-154.05442946 70.27270072 -153.37322961 66.3649564 -151.6015625 61.921875 C-149.4765625 59.421875 -149.4765625 59.421875 -147.6015625 57.921875 C-148.2615625 57.261875 -148.9215625 56.601875 -149.6015625 55.921875 C-150.3515625 53.484375 -150.3515625 53.484375 -150.6015625 50.921875 C-149.9415625 49.931875 -149.2815625 48.941875 -148.6015625 47.921875 C-148.2715625 46.931875 -147.9415625 45.941875 -147.6015625 44.921875 C-147.9315625 44.261875 -148.2615625 43.601875 -148.6015625 42.921875 C-147.63975938 38.20029605 -146.72592735 34.67145156 -142.6015625 31.921875 C-139.3515625 32.171875 -139.3515625 32.171875 -136.6015625 32.921875 C-137.2615625 32.591875 -137.9215625 32.261875 -138.6015625 31.921875 C-139.2265625 28.859375 -139.2265625 28.859375 -139.6015625 25.921875 C-140.2615625 25.921875 -140.9215625 25.921875 -141.6015625 25.921875 C-142.2615625 26.581875 -142.9215625 27.241875 -143.6015625 27.921875 C-144.6015625 24.921875 -144.6015625 24.921875 -143.6640625 22.734375 C-143.3134375 22.13625 -142.9628125 21.538125 -142.6015625 20.921875 C-141.9415625 21.581875 -141.2815625 22.241875 -140.6015625 22.921875 C-140.3334375 22.32375 -140.0653125 21.725625 -139.7890625 21.109375 C-138.6015625 18.921875 -138.6015625 18.921875 -137.0390625 17.421875 C-135.45827821 16.03823991 -135.45827821 16.03823991 -135.2265625 14.109375 C-134.20990418 10.55107087 -132.18606629 8.50637879 -129.6015625 5.921875 C-126.2890625 5.046875 -126.2890625 5.046875 -123.6015625 4.921875 C-123.9315625 3.931875 -124.2615625 2.941875 -124.6015625 1.921875 C-123.9415625 1.261875 -123.2815625 0.601875 -122.6015625 -0.078125 C-121.90407667 -1.39559824 -121.23196293 -2.72726693 -120.6015625 -4.078125 C-119.6940625 -3.315 -118.7865625 -2.551875 -117.8515625 -1.765625 C-117.29855469 -1.31058594 -116.74554688 -0.85554688 -116.17578125 -0.38671875 C-114.98204598 0.60559221 -113.8160403 1.63137893 -112.6640625 2.671875 C-109.75414471 4.43546154 -106.95733004 4.51686857 -103.6015625 4.921875 C-102.7146875 5.251875 -101.8278125 5.581875 -100.9140625 5.921875 C-85.35045308 10.62032313 -72.59366177 5.41369023 -58.6015625 -1.078125 C-38.58618351 -10.31315352 -18.93346144 -15.12402625 0 0 Z M-149.6015625 68.921875 C-149.6015625 70.241875 -149.6015625 71.561875 -149.6015625 72.921875 C-148.9415625 72.921875 -148.2815625 72.921875 -147.6015625 72.921875 C-147.2715625 71.931875 -146.9415625 70.941875 -146.6015625 69.921875 C-147.5915625 69.591875 -148.5815625 69.261875 -149.6015625 68.921875 Z " fill="#ffffff" transform="translate(359.6015625,500.078125)"/>
<path d="M0 0 C3.27097512 3.02466675 5.47232082 6.61820697 7.890625 10.33203125 C13.99337209 18.05087618 21.65056148 21.48965165 30.5 25.5 C49.84939611 34.26867143 49.84939611 34.26867143 53.875 43.125 C54.26429688 43.95257813 54.65359375 44.78015625 55.0546875 45.6328125 C56.48167036 49.20616628 57.12668105 52.34045115 57.1328125 56.1875 C57.13410156 56.96867187 57.13539063 57.74984375 57.13671875 58.5546875 C57.13285156 59.36164063 57.12898438 60.16859375 57.125 61 C57.12886719 61.80695313 57.13273437 62.61390625 57.13671875 63.4453125 C57.13542969 64.22648437 57.13414062 65.00765625 57.1328125 65.8125 C57.13168457 66.52019531 57.13055664 67.22789062 57.12939453 67.95703125 C56.99511502 70.07712733 56.57716498 71.95957563 56 74 C56.79019531 74.01417969 57.58039063 74.02835937 58.39453125 74.04296875 C79.62418844 74.94067997 99.92423339 81.67109552 115 97 C115.6084375 97.52722656 116.216875 98.05445313 116.84375 98.59765625 C127.73432869 108.2754205 133.76401453 124.12084375 139.97949219 137.03515625 C144.74546977 146.88010099 149.75805516 153.83870344 159 160 C159 160.66 159 161.32 159 162 C155.64404172 161.40072174 153.62198774 160.15377564 151 158 C150.34 158.66 149.68 159.32 149 160 C148.67 158.68 148.34 157.36 148 156 C146.35 156.99 144.7 157.98 143 159 C143.33 159.99 143.66 160.98 144 162 C143.01 162.33 142.02 162.66 141 163 C140.67 163.66 140.34 164.32 140 165 C138.68 165 137.36 165 136 165 C133.58967433 167.74047859 133.58967433 167.74047859 132 171 C132.33 171.99 132.66 172.98 133 174 C132.38125 174.20625 131.7625 174.4125 131.125 174.625 C128.15346355 176.54775888 127.86975341 178.66594527 127 182 C126.34 181.34 125.68 180.68 125 180 C124.67 180.33 124.34 180.66 124 181 C124 181.33 124 181.66 124 182 C124.99 182.33 125.98 182.66 127 183 C128.95216435 184.95216435 129.84826645 186.53199953 131 189 C129.68 190.65 128.36 192.3 127 194 C127 192.68 127 191.36 127 190 C124.38469124 190.36073224 123.20250273 190.79749727 121.3125 192.6875 C119.04888694 196.67577063 119 200.48116726 119 205 C118.649375 205.639375 118.29875 206.27875 117.9375 206.9375 C116.7119257 209.63376345 117.22352358 211.20468489 118 214 C118.66 213.67 119.32 213.34 120 213 C119.5984504 215.81084717 119.25191141 216.79532198 117 218.625 C113.91537138 222.28799649 114.17773311 226.34339241 114 231 C114.99 231 115.98 231 117 231 C116.24050633 238.46835443 116.24050633 238.46835443 114.8125 241.625 C113.68015186 244.93494071 114.68357519 246.8552074 116 250 C115.34 250.66 114.68 251.32 114 252 C114 252.99 114 253.98 114 255 C112 257 112 257 109.38623047 257.22705078 C108.30744629 257.21657715 107.22866211 257.20610352 106.1171875 257.1953125 C104.95058594 257.18886719 103.78398437 257.18242188 102.58203125 257.17578125 C101.35871094 257.15902344 100.13539063 257.14226562 98.875 257.125 C97.64394531 257.11597656 96.41289062 257.10695313 95.14453125 257.09765625 C92.09616185 257.07402548 89.04817618 257.04108054 86 257 C85.05598958 255.2421875 84.11197917 253.484375 83.16796875 251.7265625 C81.95236507 249.69497635 81.95236507 249.69497635 79 248 C78.05276654 246.37617121 77.11324733 244.74721476 76.21875 243.09375 C74.86802714 240.7732774 73.33767575 238.66501238 71.75 236.5 C53.93480338 211.32885123 45.35811397 177.75179517 49.53125 147.09765625 C50.86675436 140.87739951 52.85799428 135.52559626 56 130 C56.66 130 57.32 130 58 130 C58.268125 129.40960938 58.53625 128.81921875 58.8125 128.2109375 C64.20849455 118.16444764 76.54335181 112.2414051 87 109 C99.56279469 105.95866318 111.09641104 105.65650515 123 111 C117.81935145 102.5225751 112.28555015 95.10291751 103 91 C102.57074219 90.53980469 102.14148438 90.07960938 101.69921875 89.60546875 C92.83332903 81.22873156 76.45994657 79.35876455 65 77 C63.86812256 76.75411133 62.73624512 76.50822266 61.57006836 76.25488281 C50.88142932 74.06395456 40.22983353 73.14235542 29.35787964 72.34979248 C-16.63789169 68.95464811 -16.63789169 68.95464811 -33 63 C-33.9075 62.835 -34.815 62.67 -35.75 62.5 C-38 62 -38 62 -40 60 C-41.175625 59.566875 -42.35125 59.13375 -43.5625 58.6875 C-47 57 -47 57 -48 54.5 C-48 52 -48 52 -47 49 C-45.01276732 48.29618843 -43.01222047 47.6288189 -41 47 C-40.67 46.34 -40.34 45.68 -40 45 C-37.30114269 44.42577504 -34.76207303 44 -32 44 C-29.24750021 41.59156268 -27.44077046 39.36179774 -26 36 C-24.33333333 36 -22.66666667 36 -21 36 C-20.34 35.01 -19.68 34.02 -19 33 C-19 33.66 -19 34.32 -19 35 C-18.01 35 -17.02 35 -16 35 C-15.67 33.68 -15.34 32.36 -15 31 C-12.5625 31.375 -12.5625 31.375 -10 32 C-9.67 32.66 -9.34 33.32 -9 34 C-4.06999139 31.42965363 0.18434132 29.12091137 4 25 C4.66 25 5.32 25 6 25 C6.25621858 18.59453544 4.98851218 14.25380778 2.4375 8.4375 C1.23024227 5.55057934 0.46571771 3.07373688 0 0 Z M117 226 C117.99 226.33 118.98 226.66 120 227 C119.67 227.99 119.34 228.98 119 230 C118.34 229.67 117.68 229.34 117 229 C117 228.01 117 227.02 117 226 Z " fill="#ffffff" transform="translate(93,343)"/>
<path d="M0 0 C1.6396875 0.2475 1.6396875 0.2475 3.3125 0.5 C6.84431202 0.97888977 10.03901096 0.99923757 13.59765625 0.9296875 C21.62337133 0.81134098 29.5180331 0.97857026 37.5 1.875 C38.20390869 1.95347168 38.90781738 2.03194336 39.63305664 2.11279297 C45.15053641 2.78576662 50.56381284 3.85215292 56 5 C56.8259668 5.17047852 57.65193359 5.34095703 58.50292969 5.51660156 C68.03044697 7.51868024 77.29565003 9.73928611 86.25 13.625 C86.92305176 13.9139917 87.59610352 14.2029834 88.28955078 14.50073242 C90.140625 15.3515625 90.140625 15.3515625 93 17 C93.495 18.485 93.495 18.485 94 20 C95.32620284 20.36065902 96.66107089 20.6899069 98 21 C104.67164708 25.74581081 112.72466694 32.9099269 115 41 C113.37433394 40.52309796 111.74948689 40.04340334 110.125 39.5625 C109.22007812 39.29566406 108.31515625 39.02882813 107.3828125 38.75390625 C105 38 105 38 103 37 C86.17903537 35.92044555 70.39132349 39.39960244 57 50 C52.4079649 54.02600629 52.4079649 54.02600629 49 59 C48.34 59 47.68 59 47 59 C46.731875 59.804375 46.46375 60.60875 46.1875 61.4375 C45.54699556 63.35901332 44.90242136 65.27929395 44.234375 67.19140625 C43.97140625 67.95324219 43.7084375 68.71507812 43.4375 69.5 C43.18871094 70.2115625 42.93992187 70.923125 42.68359375 71.65625 C37.17770317 90.53358914 41.85095279 112.58639238 47 131 C47.21019775 131.7852002 47.42039551 132.57040039 47.63696289 133.37939453 C49.32256171 139.39631273 51.6066057 144.75281036 54.5625 150.25 C54.99361084 151.06339844 55.42472168 151.87679687 55.86889648 152.71484375 C59.4427953 159.30286631 63.54792786 165.34411004 68.06640625 171.3125 C70 174 70 174 71 177 C71.9590625 177.928125 71.9590625 177.928125 72.9375 178.875 C75 181 75 181 77 186 C54.89 186 32.78 186 10 186 C8.64560332 183.29120665 8.93498549 180.99066732 9 178 C9.99 178.99 9.99 178.99 11 180 C11 179.34 11 178.68 11 178 C13.475 177.01 13.475 177.01 16 176 C14.35 176.33 12.7 176.66 11 177 C11.495 173.04 11.495 173.04 12 169 C11.34 169.99 10.68 170.98 10 172 C9.01 171.01 9.01 171.01 8 170 C7.34 170.33 6.68 170.66 6 171 C5.01 170.01 5.01 170.01 4 169 C3.34 169.66 2.68 170.32 2 171 C1.34 171 0.68 171 0 171 C-0.66 170.34 -1.32 169.68 -2 169 C-1.67342446 165.24438133 -0.8830622 162.26397448 1 159 C0.01 158.67 -0.98 158.34 -2 158 C-1.67 157.01 -1.34 156.02 -1 155 C-2.32 155.33 -3.64 155.66 -5 156 C-4.67 156.99 -4.34 157.98 -4 159 C-4.99 159.99 -4.99 159.99 -6 161 C-6.7412036 158.69403325 -7.10276212 157.36537641 -6.4375 155 C-5.86333986 152.37526794 -6.63831556 151.24277438 -8 149 C-7.34 148.01 -6.68 147.02 -6 146 C-6.33 145.67 -6.66 145.34 -7 145 C-7.99 145.99 -7.99 145.99 -9 147 C-9.69499399 144.2972456 -10.08000105 142.38000499 -9.5 139.625 C-8.84720292 136.19781531 -9.40879692 133.42897785 -10 130 C-10.103125 128.741875 -10.20625 127.48375 -10.3125 126.1875 C-10.539375 125.135625 -10.76625 124.08375 -11 123 C-12.95021083 121.77472052 -12.95021083 121.77472052 -15 121 C-15.75 118.875 -15.75 118.875 -16 117 C-14.515 116.01 -14.515 116.01 -13 115 C-12.34 114.01 -11.68 113.02 -11 112 C-12.32 111.01 -13.64 110.02 -15 109 C-15.66 111.31 -16.32 113.62 -17 116 C-17.99 116 -18.98 116 -20 116 C-22 113 -22 113 -21.6875 110.875 C-21 109 -21 109 -20 108 C-21.32 107.67 -22.64 107.34 -24 107 C-23.90460938 106.09636719 -23.80921875 105.19273437 -23.7109375 104.26171875 C-23.54464844 102.49248047 -23.54464844 102.49248047 -23.375 100.6875 C-23.25898437 99.51574219 -23.14296875 98.34398437 -23.0234375 97.13671875 C-22.70551218 93.83408833 -22.70551218 93.83408833 -25 91 C-25.04346799 89.00047242 -25.039992 86.99960012 -25 85 C-25.31088368 83.32900023 -25.64080332 81.66128463 -26 80 C-26 79.01 -26 78.02 -26 77 C-26.99 77 -27.98 77 -29 77 C-28.34 74.69 -27.68 72.38 -27 70 C-26.01 70 -25.02 70 -24 70 C-23.34 68.68 -22.68 67.36 -22 66 C-22.99 66 -23.98 66 -25 66 C-26.0625 63.625 -26.0625 63.625 -27 61 C-26.67 60.34 -26.34 59.68 -26 59 C-26.27942455 57.32345271 -26.60828247 55.65391846 -27 54 C-26.01 53.505 -26.01 53.505 -25 53 C-25.33 52.67 -25.66 52.34 -26 52 C-26.74776114 49.50746285 -27 47.63664741 -27 45 C-26.1646875 45.5878125 -26.1646875 45.5878125 -25.3125 46.1875 C-22.91165538 47.32743333 -22.91165538 47.32743333 -20.3125 45.8125 C-17.74003999 44.13943946 -17.74003999 44.13943946 -17 41 C-16.34 41.99 -15.68 42.98 -15 44 C-13.515 43.505 -13.515 43.505 -12 43 C-12 42.34 -12 41.68 -12 41 C-11.34 41 -10.68 41 -10 41 C-10.33 39.02 -10.66 37.04 -11 35 C-11.66 35 -12.32 35 -13 35 C-12.67 34.34 -12.34 33.68 -12 33 C-12 32.34 -12 31.68 -12 31 C-12.99 31.33 -13.98 31.66 -15 32 C-15.53190541 30.56656 -16.05015258 29.12804633 -16.5625 27.6875 C-16.85253906 26.88699219 -17.14257812 26.08648437 -17.44140625 25.26171875 C-18 23 -18 23 -17 20 C-16.34 20.66 -15.68 21.32 -15 22 C-11.88667752 21.33131686 -11.88667752 21.33131686 -10.8125 18.9375 C-10.544375 18.298125 -10.27625 17.65875 -10 17 C-10.66 17 -11.32 17 -12 17 C-12.6875 15.3125 -12.6875 15.3125 -13 13 C-11.6875 10.25 -11.6875 10.25 -10 8 C-9.34 8 -8.68 8 -8 8 C-8 7.34 -8 6.68 -8 6 C-7.34 6 -6.68 6 -6 6 C-5.67 5.34 -5.34 4.68 -5 4 C-3.66666667 3.33333333 -2.33333333 2.66666667 -1 2 C-0.67 1.34 -0.34 0.68 0 0 Z M-17 34 C-15.68 34.33 -14.36 34.66 -13 35 C-13 35.66 -13 36.32 -13 37 C-13.66 37 -14.32 37 -15 37 C-15 37.66 -15 38.32 -15 39 C-15.66 38.67 -16.32 38.34 -17 38 C-17 36.68 -17 35.36 -17 34 Z " fill="#eaeaea" transform="translate(102,414)"/>
<path d="M0 0 C10.83525968 9.69960531 18.9906157 22.07668315 20.57519531 36.84814453 C20.7090573 39.77079786 20.73226294 42.67219378 20.7109375 45.59765625 C20.73091797 46.57412109 20.75089844 47.55058594 20.77148438 48.55664062 C20.7663196 56.27797441 19.12228119 62.16021897 14.52734375 68.41015625 C11.12063639 71.68311297 9.07294114 73.44985093 4.2734375 74.03515625 C2.28370957 74.922408 0.37288872 75.92617888 -1.55859375 76.93359375 C-3.72982121 78.03681203 -5.9265198 79.01203583 -8.1640625 79.97265625 C-20.37597276 85.36274078 -30.16844839 91.8415556 -35.80078125 104.4375 C-38.33546808 111.67063071 -38.87952734 118.86665127 -38.7890625 126.47265625 C-38.78455078 127.20419922 -38.78003906 127.93574219 -38.77539062 128.68945312 C-38.76374398 130.47139044 -38.74581441 132.25328488 -38.7265625 134.03515625 C-40.0465625 134.03515625 -41.3665625 134.03515625 -42.7265625 134.03515625 C-45.47697916 136.45182396 -45.47697916 136.45182396 -47.7265625 139.03515625 C-48.87125 138.04515625 -48.87125 138.04515625 -50.0390625 137.03515625 C-52.56934189 134.73665087 -52.56934189 134.73665087 -55.7265625 135.03515625 C-57.06224271 134.71135499 -58.39579261 134.37858074 -59.7265625 134.03515625 C-60.3865625 134.03515625 -61.0465625 134.03515625 -61.7265625 134.03515625 C-62.0565625 135.02515625 -62.3865625 136.01515625 -62.7265625 137.03515625 C-63.7165625 137.36515625 -64.7065625 137.69515625 -65.7265625 138.03515625 C-66.72087753 134.7237778 -66.84993077 131.72719441 -66.84681702 128.27716064 C-66.84819168 127.10209457 -66.84956635 125.9270285 -66.85098267 124.71635437 C-66.84738739 123.43098282 -66.84379211 122.14561127 -66.84008789 120.82128906 C-66.83980575 119.45125836 -66.83996427 118.08122751 -66.8405304 116.7111969 C-66.84081734 112.9945969 -66.83493722 109.27802916 -66.82795644 105.56143665 C-66.82170579 101.67635575 -66.82111774 97.79127412 -66.81993103 93.90618896 C-66.81682277 86.55041863 -66.80861617 79.19466316 -66.79858154 71.83889937 C-66.78740474 63.46411915 -66.781906 55.08933822 -66.77688611 46.7145524 C-66.76643315 29.48807842 -66.74884346 12.26161891 -66.7265625 -4.96484375 C-64.64614581 -5.45261068 -62.56524057 -5.93829413 -60.48413086 -6.4230957 C-58.7460038 -6.82912773 -58.7460038 -6.82912773 -56.97276306 -7.24336243 C-38.87246312 -11.26622796 -15.23412779 -11.91906011 0 0 Z " fill="#f2f2f2" transform="translate(66.7265625,19.96484375)"/>
<path d="M0 0 C2.53052805 2.24765936 4.9707362 4.56400606 7.3984375 6.921875 C8.34009766 7.75332031 8.34009766 7.75332031 9.30078125 8.6015625 C17.51490823 16.08927009 22.34672009 25.8154754 25.8984375 36.171875 C26.15375244 36.9038208 26.40906738 37.6357666 26.67211914 38.38989258 C28.37560441 43.71455553 28.61912506 48.33847981 28.3984375 53.921875 C26.34052452 50.0133559 25.20044409 45.97298073 24.0234375 41.734375 C22.25792115 35.51909743 20.1696333 29.77217724 17.3984375 23.921875 C17.3984375 23.261875 17.3984375 22.601875 17.3984375 21.921875 C16.4084375 21.591875 15.4184375 21.261875 14.3984375 20.921875 C14.0684375 19.271875 13.7384375 17.621875 13.3984375 15.921875 C12.7384375 15.921875 12.0784375 15.921875 11.3984375 15.921875 C10.9446875 15.1175 10.4909375 14.313125 10.0234375 13.484375 C8.66422755 10.76951307 8.66422755 10.76951307 6.2109375 10.109375 C5.6128125 10.0475 5.0146875 9.985625 4.3984375 9.921875 C4.0684375 10.581875 3.7384375 11.241875 3.3984375 11.921875 C3.0684375 11.261875 2.7384375 10.601875 2.3984375 9.921875 C1.4084375 10.581875 0.4184375 11.241875 -0.6015625 11.921875 C-1.5915625 10.931875 -1.5915625 10.931875 -2.6015625 9.921875 C-2.9315625 11.241875 -3.2615625 12.561875 -3.6015625 13.921875 C-5.9115625 13.591875 -8.2215625 13.261875 -10.6015625 12.921875 C-9.6115625 10.446875 -9.6115625 10.446875 -8.6015625 7.921875 C-7.6115625 7.921875 -6.6215625 7.921875 -5.6015625 7.921875 C-7.98917961 6.41856052 -9.14129301 5.84920087 -11.9765625 6.296875 C-12.8428125 6.503125 -13.7090625 6.709375 -14.6015625 6.921875 C-16.6012066 6.95960413 -18.60210311 6.96837406 -20.6015625 6.921875 C-20.2715625 7.251875 -19.9415625 7.581875 -19.6015625 7.921875 C-20.9215625 8.581875 -22.2415625 9.241875 -23.6015625 9.921875 C-23.2715625 10.581875 -22.9415625 11.241875 -22.6015625 11.921875 C-24.4140625 12.546875 -24.4140625 12.546875 -26.6015625 12.921875 C-27.5915625 12.261875 -28.5815625 11.601875 -29.6015625 10.921875 C-31.25705781 10.53687609 -32.9238058 10.19394365 -34.6015625 9.921875 C-34.9315625 11.901875 -35.2615625 13.881875 -35.6015625 15.921875 C-36.2615625 15.921875 -36.9215625 15.921875 -37.6015625 15.921875 C-37.6015625 17.571875 -37.6015625 19.221875 -37.6015625 20.921875 C-39.0865625 21.416875 -39.0865625 21.416875 -40.6015625 21.921875 C-41.33480046 23.93695858 -41.33480046 23.93695858 -41.6015625 25.921875 C-42.2615625 25.921875 -42.9215625 25.921875 -43.6015625 25.921875 C-43.9315625 27.241875 -44.2615625 28.561875 -44.6015625 29.921875 C-45.2615625 27.611875 -45.9215625 25.301875 -46.6015625 22.921875 C-48.5815625 22.426875 -48.5815625 22.426875 -50.6015625 21.921875 C-50.818125 23.0046875 -50.818125 23.0046875 -51.0390625 24.109375 C-51.3175 25.5015625 -51.3175 25.5015625 -51.6015625 26.921875 C-51.7046875 27.788125 -51.8078125 28.654375 -51.9140625 29.546875 C-52.77566845 32.52333193 -54.00961929 33.33326465 -56.6015625 34.921875 C-56.6015625 33.601875 -56.6015625 32.281875 -56.6015625 30.921875 C-56.9315625 29.931875 -57.2615625 28.941875 -57.6015625 27.921875 C-57.2715625 27.591875 -56.9415625 27.261875 -56.6015625 26.921875 C-58.5815625 27.911875 -60.5615625 28.901875 -62.6015625 29.921875 C-62.6015625 30.911875 -62.6015625 31.901875 -62.6015625 32.921875 C-63.2615625 32.921875 -63.9215625 32.921875 -64.6015625 32.921875 C-63.9415625 33.581875 -63.2815625 34.241875 -62.6015625 34.921875 C-61.9415625 34.591875 -61.2815625 34.261875 -60.6015625 33.921875 C-60.7665625 34.499375 -60.9315625 35.076875 -61.1015625 35.671875 C-61.74618281 38.18851869 -61.74618281 38.18851869 -61.6015625 41.921875 C-61.9765625 44.609375 -61.9765625 44.609375 -62.6015625 46.921875 C-63.5915625 47.416875 -63.5915625 47.416875 -64.6015625 47.921875 C-65.73506784 49.93857327 -65.73506784 49.93857327 -66.6015625 51.921875 C-66.9315625 51.261875 -67.2615625 50.601875 -67.6015625 49.921875 C-68.2821875 50.4375 -68.9628125 50.953125 -69.6640625 51.484375 C-73.40275082 53.31394588 -75.60599663 52.78366372 -79.6015625 51.921875 C-79.6015625 52.911875 -79.6015625 53.901875 -79.6015625 54.921875 C-78.9415625 55.251875 -78.2815625 55.581875 -77.6015625 55.921875 C-77.1065625 54.436875 -77.1065625 54.436875 -76.6015625 52.921875 C-76.2715625 54.241875 -75.9415625 55.561875 -75.6015625 56.921875 C-76.5915625 57.581875 -77.5815625 58.241875 -78.6015625 58.921875 C-78.9315625 58.591875 -79.2615625 58.261875 -79.6015625 57.921875 C-79.9315625 58.581875 -80.2615625 59.241875 -80.6015625 59.921875 C-78.9515625 60.581875 -77.3015625 61.241875 -75.6015625 61.921875 C-75.6015625 65.02739166 -76.140934 66.27448584 -77.6015625 68.921875 C-79.96109344 66.56234406 -80.09297663 65.14291883 -80.6015625 61.921875 C-80.6015625 62.911875 -80.6015625 63.901875 -80.6015625 64.921875 C-82.6015625 67.109375 -82.6015625 67.109375 -84.6015625 68.921875 C-85.2615625 68.261875 -85.9215625 67.601875 -86.6015625 66.921875 C-86.6015625 67.581875 -86.6015625 68.241875 -86.6015625 68.921875 C-85.1165625 69.416875 -85.1165625 69.416875 -83.6015625 69.921875 C-82.5390625 72.296875 -82.5390625 72.296875 -81.6015625 74.921875 C-80.6115625 76.406875 -80.6115625 76.406875 -79.6015625 77.921875 C-79.4765625 80.609375 -79.4765625 80.609375 -79.6015625 82.921875 C-81.0865625 83.416875 -81.0865625 83.416875 -82.6015625 83.921875 C-82.7459375 84.829375 -82.8903125 85.736875 -83.0390625 86.671875 C-83.6015625 89.921875 -83.6015625 89.921875 -84.2265625 91.984375 C-84.71391739 94.50237529 -84.20241444 96.45170591 -83.6015625 98.921875 C-83.6015625 99.251875 -83.6015625 99.581875 -83.6015625 99.921875 C-107.0315625 99.921875 -130.4615625 99.921875 -154.6015625 99.921875 C-153.9415625 98.601875 -153.2815625 97.281875 -152.6015625 95.921875 C-152.6015625 94.931875 -152.6015625 93.941875 -152.6015625 92.921875 C-151.9415625 92.921875 -151.2815625 92.921875 -150.6015625 92.921875 C-151.1584375 91.931875 -151.7153125 90.941875 -152.2890625 89.921875 C-153.33067322 87.55065059 -153.71638292 86.39361783 -153.09765625 83.8515625 C-152.52010626 82.4892697 -151.92384039 81.13475089 -151.30859375 79.7890625 C-150.34602584 77.24703232 -150.73209088 75.45124697 -151.6015625 72.921875 C-152.0965625 73.911875 -152.0965625 73.911875 -152.6015625 74.921875 C-154.05442946 70.27270072 -153.37322961 66.3649564 -151.6015625 61.921875 C-149.4765625 59.421875 -149.4765625 59.421875 -147.6015625 57.921875 C-148.2615625 57.261875 -148.9215625 56.601875 -149.6015625 55.921875 C-150.3515625 53.484375 -150.3515625 53.484375 -150.6015625 50.921875 C-149.9415625 49.931875 -149.2815625 48.941875 -148.6015625 47.921875 C-148.2715625 46.931875 -147.9415625 45.941875 -147.6015625 44.921875 C-147.9315625 44.261875 -148.2615625 43.601875 -148.6015625 42.921875 C-147.63975938 38.20029605 -146.72592735 34.67145156 -142.6015625 31.921875 C-139.3515625 32.171875 -139.3515625 32.171875 -136.6015625 32.921875 C-137.2615625 32.591875 -137.9215625 32.261875 -138.6015625 31.921875 C-139.2265625 28.859375 -139.2265625 28.859375 -139.6015625 25.921875 C-140.2615625 25.921875 -140.9215625 25.921875 -141.6015625 25.921875 C-142.2615625 26.581875 -142.9215625 27.241875 -143.6015625 27.921875 C-144.6015625 24.921875 -144.6015625 24.921875 -143.6640625 22.734375 C-143.3134375 22.13625 -142.9628125 21.538125 -142.6015625 20.921875 C-141.9415625 21.581875 -141.2815625 22.241875 -140.6015625 22.921875 C-140.3334375 22.32375 -140.0653125 21.725625 -139.7890625 21.109375 C-138.6015625 18.921875 -138.6015625 18.921875 -137.0390625 17.421875 C-135.45827821 16.03823991 -135.45827821 16.03823991 -135.2265625 14.109375 C-134.20990418 10.55107087 -132.18606629 8.50637879 -129.6015625 5.921875 C-126.2890625 5.046875 -126.2890625 5.046875 -123.6015625 4.921875 C-123.9315625 3.931875 -124.2615625 2.941875 -124.6015625 1.921875 C-123.9415625 1.261875 -123.2815625 0.601875 -122.6015625 -0.078125 C-121.90407667 -1.39559824 -121.23196293 -2.72726693 -120.6015625 -4.078125 C-119.6940625 -3.315 -118.7865625 -2.551875 -117.8515625 -1.765625 C-117.29855469 -1.31058594 -116.74554688 -0.85554688 -116.17578125 -0.38671875 C-114.98204598 0.60559221 -113.8160403 1.63137893 -112.6640625 2.671875 C-109.75414471 4.43546154 -106.95733004 4.51686857 -103.6015625 4.921875 C-102.7146875 5.251875 -101.8278125 5.581875 -100.9140625 5.921875 C-85.35045308 10.62032313 -72.59366177 5.41369023 -58.6015625 -1.078125 C-38.58618351 -10.31315352 -18.93346144 -15.12402625 0 0 Z M-149.6015625 68.921875 C-149.6015625 70.241875 -149.6015625 71.561875 -149.6015625 72.921875 C-148.9415625 72.921875 -148.2815625 72.921875 -147.6015625 72.921875 C-147.2715625 71.931875 -146.9415625 70.941875 -146.6015625 69.921875 C-147.5915625 69.591875 -148.5815625 69.261875 -149.6015625 68.921875 Z " fill="#f1eeef" transform="translate(359.6015625,500.078125)"/>
<path d="M0 0 C2.42761589 0.36037928 4.85033243 0.59799925 7.29443359 0.8203125 C8.20128906 0.9028125 9.10814453 0.9853125 10.04248047 1.0703125 C11.92259659 1.23801624 13.80280661 1.40467021 15.68310547 1.5703125 C17.03758789 1.6940625 17.03758789 1.6940625 18.41943359 1.8203125 C19.23371826 1.8925 20.04800293 1.9646875 20.88696289 2.0390625 C23.04564718 2.30643206 25.06259993 2.74392324 27.15771484 3.3203125 C27.15771484 3.9803125 27.15771484 4.6403125 27.15771484 5.3203125 C27.99431641 5.40667969 28.83091797 5.49304688 29.69287109 5.58203125 C49.27378106 7.94561839 68.80970936 15.24998373 82.15771484 30.3203125 C82.15771484 30.9803125 82.15771484 31.6403125 82.15771484 32.3203125 C82.81771484 32.3203125 83.47771484 32.3203125 84.15771484 32.3203125 C87.66013571 36.77058324 90.28017349 42.00061199 92.15771484 47.3203125 C91.15771484 50.3203125 91.15771484 50.3203125 90.15771484 51.3203125 C89.66271484 52.3103125 89.66271484 52.3103125 89.15771484 53.3203125 C85.51298285 54.21124699 82.73028953 54.55697297 79.15771484 53.3203125 C79.34333984 53.8978125 79.52896484 54.4753125 79.72021484 55.0703125 C80.20510051 57.56401022 79.85677906 58.91242463 79.15771484 61.3203125 C79.15771484 62.3103125 79.15771484 63.3003125 79.15771484 64.3203125 C79.15771484 65.98697917 79.15771484 67.65364583 79.15771484 69.3203125 C76.51771484 69.6503125 73.87771484 69.9803125 71.15771484 70.3203125 C71.05458984 70.9596875 70.95146484 71.5990625 70.84521484 72.2578125 C70.61833984 72.9384375 70.39146484 73.6190625 70.15771484 74.3203125 C68.67271484 74.8153125 68.67271484 74.8153125 67.15771484 75.3203125 C65.52095228 77.2803406 65.52095228 77.2803406 64.15771484 79.3203125 C63.82771484 79.6503125 63.49771484 79.9803125 63.15771484 80.3203125 C61.81500664 82.31403075 60.4811799 84.3137687 59.15771484 86.3203125 C59.81771484 86.3203125 60.47771484 86.3203125 61.15771484 86.3203125 C60.49771484 87.9703125 59.83771484 89.6203125 59.15771484 91.3203125 C58.49771484 90.3303125 57.83771484 89.3403125 57.15771484 88.3203125 C56.13666933 89.29881445 55.13710275 90.30011677 54.15771484 91.3203125 C54.15771484 93.15378597 55.33414057 94.72160951 56.15771484 96.3203125 C56.48771484 96.9803125 56.81771484 97.6403125 57.15771484 98.3203125 C56.49771484 98.9803125 55.83771484 99.6403125 55.15771484 100.3203125 C54.82771484 99.6603125 54.49771484 99.0003125 54.15771484 98.3203125 C53.95146484 98.8771875 53.74521484 99.4340625 53.53271484 100.0078125 C51.6077071 103.24532552 49.11920582 105.00262391 46.15771484 107.3203125 C45.16771484 106.3303125 45.16771484 106.3303125 44.15771484 105.3203125 C43.49771484 105.9803125 42.83771484 106.6403125 42.15771484 107.3203125 C41.49771484 105.6703125 40.83771484 104.0203125 40.15771484 102.3203125 C39.66271484 104.3003125 39.66271484 104.3003125 39.15771484 106.3203125 C36.64581467 103.80841232 36.63361663 102.36206437 36.09521484 98.8828125 C35.92634766 97.80515625 35.75748047 96.7275 35.58349609 95.6171875 C35.19590086 92.61599138 34.96607809 89.65190963 34.78271484 86.6328125 C34.08264795 78.10919104 30.09648789 69.94812978 23.78271484 64.1328125 C21.01102615 62.21902745 18.1932221 60.77207684 15.15771484 59.3203125 C14.16771484 58.6603125 13.17771484 58.0003125 12.15771484 57.3203125 C9.95779158 57.05155613 7.74599121 56.87313843 5.53271484 56.7578125 C-0.74426882 56.41832884 -0.74426882 56.41832884 -1.84228516 55.3203125 C-5.47228516 54.9903125 -9.10228516 54.6603125 -12.84228516 54.3203125 C-12.84228516 36.5003125 -12.84228516 18.6803125 -12.84228516 0.3203125 C-10.86228516 0.3203125 -8.88228516 0.3203125 -6.84228516 0.3203125 C-4.31740351 -0.94212832 -2.71214197 -0.43832598 0 0 Z " fill="#f3f1f2" transform="translate(12.84228515625,206.6796875)"/>
<path d="M0 0 C0 0.66 0 1.32 0 2 C1.65 2.66 3.3 3.32 5 4 C4.67 5.98 4.34 7.96 4 10 C3.01 10.33 2.02 10.66 1 11 C0.505 9.515 0.505 9.515 0 8 C-0.66 8 -1.32 8 -2 8 C-3.38232443 9.62626404 -4.71937515 11.2925002 -6 13 C-5.01 14.32 -4.02 15.64 -3 17 C-3.99 18.485 -3.99 18.485 -5 20 C-5.66 19.34 -6.32 18.68 -7 18 C-7 18.99 -7 19.98 -7 21 C-7.57668317 23.69290446 -8.30097568 26.3349698 -9 29 C-9.66 29 -10.32 29 -11 29 C-11.66 29.99 -12.32 30.98 -13 32 C-13.99 32.66 -14.98 33.32 -16 34 C-16.33 33.01 -16.66 32.02 -17 31 C-18.98 32.32 -20.96 33.64 -23 35 C-22.01 35 -21.02 35 -20 35 C-18 37 -18 37 -16 40 C-16.13387195 44.95326219 -18.63530202 47.63530202 -22 51 C-23.32 51 -24.64 51 -26 51 C-26.04898438 51.63808594 -26.09796875 52.27617187 -26.1484375 52.93359375 C-26.22320312 53.75988281 -26.29796875 54.58617187 -26.375 55.4375 C-26.44460937 56.26121094 -26.51421875 57.08492188 -26.5859375 57.93359375 C-26.72257812 58.61550781 -26.85921875 59.29742188 -27 60 C-27.99 60.495 -27.99 60.495 -29 61 C-29.66 60.34 -30.32 59.68 -31 59 C-33.1897765 61.55791284 -35.26375113 64.10984661 -37 67 C-36.76956136 69.65466049 -36.76956136 69.65466049 -36 72 C-36.94726954 73.69719127 -37.94228261 75.36935236 -39 77 C-38.505 77.99 -38.505 77.99 -38 79 C-35.525 78.505 -35.525 78.505 -33 78 C-32.67 78.66 -32.34 79.32 -32 80 C-31.34 79.67 -30.68 79.34 -30 79 C-29.67 79.99 -29.34 80.98 -29 82 C-29.66 82.66 -30.32 83.32 -31 84 C-31.33 83.67 -31.66 83.34 -32 83 C-32.66 83.66 -33.32 84.32 -34 85 C-34.99 84.67 -35.98 84.34 -37 84 C-37 83.34 -37 82.68 -37 82 C-38.98 82.99 -38.98 82.99 -41 84 C-40.67 84.99 -40.34 85.98 -40 87 C-38.515 86.505 -38.515 86.505 -37 86 C-35.75 92.625 -35.75 92.625 -38 96 C-38.99 96.495 -38.99 96.495 -40 97 C-37.36893239 98.05270463 -37.36893239 98.05270463 -36 98 C-35.34 98 -34.68 98 -34 98 C-34 98.66 -34 99.32 -34 100 C-33.34 100 -32.68 100 -32 100 C-32.66 101.32 -33.32 102.64 -34 104 C-34.99 104 -35.98 104 -37 104 C-37.18490007 106.32357511 -37.18490007 106.32357511 -35 109 C-35.45375 109.598125 -35.9075 110.19625 -36.375 110.8125 C-37.63295913 112.50590652 -38.82984724 114.24477086 -40 116 C-40.99 116 -41.98 116 -43 116 C-42.67 118.64 -42.34 121.28 -42 124 C-46.23599944 124 -47.7710737 122.28330262 -50.81640625 119.47265625 C-68.2233913 99.76134759 -71.48426693 66.14492489 -70 41 C-68.95372056 33.31446204 -66.8272426 26.73066803 -63 20 C-62.34 20 -61.68 20 -61 20 C-60.731875 19.40960938 -60.46375 18.81921875 -60.1875 18.2109375 C-54.79150545 8.16444764 -42.45664819 2.2414051 -32 -1 C-21.63463945 -3.50935826 -9.64830932 -5.38510288 0 0 Z M-26 36 C-25.01 37.485 -25.01 37.485 -24 39 C-24 38.01 -24 37.02 -24 36 C-24.66 36 -25.32 36 -26 36 Z " fill="#f6f6f6" transform="translate(212,453)"/>
<path d="M0 0 C1.84129501 0 3.68285686 -0.01902697 5.5234375 -0.0703125 C6.46445312 -0.08835937 7.40546875 -0.10640625 8.375 -0.125 C9.31085937 -0.14820313 10.24671875 -0.17140625 11.2109375 -0.1953125 C15.84244724 0.12902292 18.94806387 1.54998525 22 5 C22.7425 5.61875 23.485 6.2375 24.25 6.875 C24.8275 7.57625 25.405 8.2775 26 9 C25.75 11.5 25.75 11.5 25 14 C25 15.32 25 16.64 25 18 C24.01 17.67 23.02 17.34 22 17 C22.515625 17.9075 23.03125 18.815 23.5625 19.75 C25.14534027 23.32859539 25.01936776 23.53414962 24 27 C24.22577245 28.96744567 24.45543336 30.93504465 24.7421875 32.89453125 C25.11622321 35.94915625 25.06404853 38.92567041 25 42 C24.34 42 23.68 42 23 42 C23 43.65 23 45.3 23 47 C22.01 47 21.02 47 20 47 C17.84971696 47.94978897 17.84971696 47.94978897 16 49 C16 51.64 16 54.28 16 57 C15.01 57 14.02 57 13 57 C11.89163577 58.88316159 11.89163577 58.88316159 11 61 C11.33 61.66 11.66 62.32 12 63 C11.34 63.66 10.68 64.32 10 65 C10.33 65.99 10.66 66.98 11 68 C10.0625 70.1875 10.0625 70.1875 9 72 C8.34 72 7.68 72 7 72 C6.71125 72.61875 6.4225 73.2375 6.125 73.875 C5 76 5 76 3 78 C2.01 78 1.02 78 0 78 C-0.66 78.99 -1.32 79.98 -2 81 C-2.66 81 -3.32 81 -4 81 C-4.33 81.66 -4.66 82.32 -5 83 C-5.99 82.01 -6.98 81.02 -8 80 C-7.67 80.99 -7.34 81.98 -7 83 C-7.66 83 -8.32 83 -9 83 C-9.33 83.66 -9.66 84.32 -10 85 C-10.33 84.01 -10.66 83.02 -11 82 C-12.1446875 82.495 -12.1446875 82.495 -13.3125 83 C-16 84 -16 84 -19 84 C-19.33 83.34 -19.66 82.68 -20 82 C-21.98 82.99 -21.98 82.99 -24 84 C-24.66 83.34 -25.32 82.68 -26 82 C-28.31 82.99 -30.62 83.98 -33 85 C-34.72880189 83.27119811 -34.12599234 81.05097384 -34.13552856 78.74632263 C-34.13350433 77.99407913 -34.1314801 77.24183563 -34.12939453 76.46679688 C-34.13114685 75.67821793 -34.13289917 74.88963898 -34.13470459 74.0771637 C-34.13912358 71.4576704 -34.13618496 68.83824404 -34.1328125 66.21875 C-34.13348553 64.4065347 -34.13445554 62.59431948 -34.13571167 60.78210449 C-34.13718871 56.97891381 -34.1350339 53.17574656 -34.13037109 49.37255859 C-34.1246738 44.48621505 -34.12795278 39.59992643 -34.13394356 34.7135849 C-34.13754901 30.96994611 -34.13641066 27.22632045 -34.13381577 23.48268127 C-34.13314645 21.68046563 -34.13397507 19.87824882 -34.13629532 18.07603455 C-34.13882159 15.56172509 -34.13498162 13.04750583 -34.12939453 10.53320312 C-34.13141876 9.78095963 -34.13344299 9.02871613 -34.13552856 8.25367737 C-34.1142626 3.1142626 -34.1142626 3.1142626 -33 2 C-30.47586362 1.58486593 -27.97622742 1.23568568 -25.4375 0.9375 C-24.30513916 0.80335693 -24.30513916 0.80335693 -23.14990234 0.66650391 C-15.41302699 -0.17778201 -7.77519896 -0.1710924 0 0 Z " fill="#e3e3e3" transform="translate(34,14)"/>
<path d="M0 0 C0.99 0.66 1.98 1.32 3 2 C3.99 1.34 4.98 0.68 6 0 C6.99 0 7.98 0 9 0 C9.86753906 -0.02320313 10.73507812 -0.04640625 11.62890625 -0.0703125 C12.59699219 -0.08835937 13.56507813 -0.10640625 14.5625 -0.125 C16.01849609 -0.15980469 16.01849609 -0.15980469 17.50390625 -0.1953125 C20 0 20 0 22 2 C22.66 1.34 23.32 0.68 24 0 C26.375 0.375 26.375 0.375 29 1 C30.32 1 31.64 1 33 1 C33.495 2.485 33.495 2.485 34 4 C36.00016466 5.20882096 36.00016466 5.20882096 38 6 C37.34 6.33 36.68 6.66 36 7 C35.67 7.99 35.34 8.98 35 10 C34.01 8.02 34.01 8.02 33 6 C33.19471111 7.94999129 33.19471111 7.94999129 34 10 C36.14668494 11.38495802 37.43871412 12 40 12 C40 12.99 40 13.98 40 15 C40.33 13.35 40.66 11.7 41 10 C41.66 10 42.32 10 43 10 C43.13277344 10.92683594 43.26554688 11.85367188 43.40234375 12.80859375 C43.66724609 14.60490234 43.66724609 14.60490234 43.9375 16.4375 C44.19853516 18.22994141 44.19853516 18.22994141 44.46484375 20.05859375 C44.68985213 22.87955676 44.68985213 22.87955676 46 24 C46.07226502 25.85287502 46.0838122 27.70833878 46.0625 29.5625 C46.05347656 30.57441406 46.04445313 31.58632813 46.03515625 32.62890625 C46.02355469 33.41136719 46.01195312 34.19382812 46 35 C45.34 34.67 44.68 34.34 44 34 C43.93941406 35.03898438 43.87882813 36.07796875 43.81640625 37.1484375 C43.73187463 38.5572979 43.64723325 39.96615171 43.5625 41.375 C43.52318359 42.05433594 43.48386719 42.73367188 43.44335938 43.43359375 C43.10618713 48.98396755 42.55454046 54.45459542 42 60 C16.26 60 -9.48 60 -36 60 C-36 59.01 -36 58.02 -36 57 C-35.34 57 -34.68 57 -34 57 C-34.804375 55.88625 -34.804375 55.88625 -35.625 54.75 C-36.07875 53.8425 -36.5325 52.935 -37 52 C-36.0625 49.9375 -36.0625 49.9375 -35 48 C-35.350625 47.38125 -35.70125 46.7625 -36.0625 46.125 C-36.5265625 45.073125 -36.5265625 45.073125 -37 44 C-35.6875 40.875 -35.6875 40.875 -34 38 C-32.67964704 35.86370532 -32.67964704 35.86370532 -33.625 32.6875 C-34 29 -34 29 -32.75 26.0625 C-31.88375 25.0415625 -31.88375 25.0415625 -31 24 C-30.01 24 -29.02 24 -28 24 C-28.33 23.01 -28.66 22.02 -29 21 C-28.01 21 -27.02 21 -26 21 C-25.67 20.01 -25.34 19.02 -25 18 C-24.34 18 -23.68 18 -23 18 C-22.54625 16.906875 -22.0925 15.81375 -21.625 14.6875 C-19.85850394 10.4318504 -18.30873956 7.88507356 -14 6 C-13.34 5.67 -12.68 5.34 -12 5 C-11.01 5 -10.02 5 -9 5 C-8.34 4.34 -7.68 3.68 -7 3 C-5.68 3 -4.36 3 -3 3 C-2.67 2.34 -2.34 1.68 -2 1 C-1.34 0.67 -0.68 0.34 0 0 Z " fill="#e3e3e3" transform="translate(542,540)"/>
<path d="M0 0 C1.5625 1.8125 1.5625 1.8125 3 4 C2.67 4.99 2.34 5.98 2 7 C1.34 6.67 0.68 6.34 0 6 C-0.33 6.99 -0.66 7.98 -1 9 C-0.34 9 0.32 9 1 9 C1.66 10.65 2.32 12.3 3 14 C3.66 14 4.32 14 5 14 C5.495 14.99 5.495 14.99 6 16 C9.02934491 16.65772428 9.02934491 16.65772428 12 17 C11.505 15.515 11.505 15.515 11 14 C14 15 14 15 15.125 16.9375 C15.41375 17.618125 15.7025 18.29875 16 19 C16.495 19.99 16.495 19.99 17 21 C16.34 21 15.68 21 15 21 C15.474375 22.093125 15.94875 23.18625 16.4375 24.3125 C17.40187809 26.53476255 18.23166828 28.69500485 19 31 C20.20858461 33.69954616 20.20858461 33.69954616 22 36 C23.85827609 46.36963943 23 57.77797303 23 68 C-2.41 68 -27.82 68 -54 68 C-53.67 64.7 -53.34 61.4 -53 58 C-53.33 57.34 -53.66 56.68 -54 56 C-52.54660123 51.84743209 -51.71250518 49.47500345 -48 47 C-47.00469206 45.10231241 -47.00469206 45.10231241 -47 43 C-48.35444301 41.22809091 -48.35444301 41.22809091 -50 40 C-49.690625 39.2575 -49.38125 38.515 -49.0625 37.75 C-47.24480752 33.40453 -47.24480752 33.40453 -47.5625 28.875 C-47.706875 28.25625 -47.85125 27.6375 -48 27 C-47.34 26.34 -46.68 25.68 -46 25 C-46 24.01 -46 23.02 -46 22 C-46 21.01 -46 20.02 -46 19 C-42.49064814 19 -39.43515002 19.37542727 -36 20 C-35.34 19.01 -34.68 18.02 -34 17 C-33.34 16.34 -32.68 15.68 -32 15 C-31.71125 14.21625 -31.4225 13.4325 -31.125 12.625 C-29.87092493 9.69882485 -28.34733907 8.11260516 -26 6 C-24.35 6.66 -22.7 7.32 -21 8 C-21 8.66 -21 9.32 -21 10 C-20.01 9.67 -19.02 9.34 -18 9 C-17.67 8.34 -17.34 7.68 -17 7 C-13.10174485 5.05087243 -9.29040563 4.55616369 -5 4 C-4.01 3.67 -3.02 3.34 -2 3 C-1.67 2.34 -1.34 1.68 -1 1 C-0.67 0.67 -0.34 0.34 0 0 Z M1 14 C1.99 15.485 1.99 15.485 3 17 C3 16.01 3 15.02 3 14 C2.34 14 1.68 14 1 14 Z M-51 41 C-50.67 41.99 -50.34 42.98 -50 44 C-50.99 44.495 -50.99 44.495 -52 45 C-51.67 43.68 -51.34 42.36 -51 41 Z " fill="#f3f1f2" transform="translate(369,532)"/>
<path d="M0 0 C3.40040734 1.13346911 4.53729252 2.46266502 7 5 C10.45466687 8.21641398 13.37972287 8.44238035 18 9 C18.87140625 9.31582031 19.7428125 9.63164062 20.640625 9.95703125 C24.86800488 11.26948524 28.9829988 11.69770802 33.375 12.125 C34.20644531 12.21136719 35.03789062 12.29773438 35.89453125 12.38671875 C37.92907147 12.59718843 39.9644597 12.79943314 42 13 C41.34 13.66 40.68 14.32 40 15 C39.67 15.99 39.34 16.98 39 18 C38.34 18.33 37.68 18.66 37 19 C36.34 19.66 35.68 20.32 35 21 C34.67 20.67 34.34 20.34 34 20 C33.34 20.66 32.68 21.32 32 22 C30.34106818 23.34294481 28.67523395 24.67744688 27 26 C27.33 24.35 27.66 22.7 28 21 C25.64046906 23.35953094 25.50858587 24.77895617 25 28 C24.01 27.34 23.02 26.68 22 26 C20.02 26.99 18.04 27.98 16 29 C16.66 30.32 17.32 31.64 18 33 C15.45981327 36.53811723 14.18158794 38.02429615 10 39 C8.71563266 40.9837767 8.71563266 40.9837767 8 43 C8.66 43.99 9.32 44.98 10 46 C9.01 46.495 9.01 46.495 8 47 C8 46.34 8 45.68 8 45 C5.4345406 47.5654594 5.45953913 49.47686668 5 53 C5.99 53 6.98 53 8 53 C7.67 55.64 7.34 58.28 7 61 C6.01 60.01 5.02 59.02 4 58 C1.26204915 60.0237028 0.99438509 61.03493722 0.4375 64.5 C0.293125 65.655 0.14875 66.81 0 68 C-0.66 68.99 -1.32 69.98 -2 71 C-1.73740217 73.48051222 -1.73740217 73.48051222 -1 76 C0.52554059 81.76315334 -0.37586466 86.94867169 -1.5625 92.75 C-2.09543483 95.10878434 -2.09543483 95.10878434 -2 98 C-0.68 98.66 0.64 99.32 2 100 C0.95581055 101.97558594 0.95581055 101.97558594 -1 104 C-3.57797437 104.35711867 -5.72314113 104.46813593 -8.29296875 104.390625 C-9.35201164 104.38213531 -9.35201164 104.38213531 -10.43244934 104.37347412 C-12.68482626 104.35110411 -14.93560503 104.30091199 -17.1875 104.25 C-18.71547179 104.22993556 -20.24346856 104.21168468 -21.77148438 104.1953125 C-25.51493756 104.15123802 -29.25719795 104.08221074 -33 104 C-32.67 103.401875 -32.34 102.80375 -32 102.1875 C-30.79212012 99.94613529 -30.79212012 99.94613529 -31 97 C-30.34 97 -29.68 97 -29 97 C-29.556875 96.01 -30.11375 95.02 -30.6875 94 C-31.72911072 91.62877559 -32.11482042 90.47174283 -31.49609375 87.9296875 C-30.91854376 86.5673947 -30.32227789 85.21287589 -29.70703125 83.8671875 C-28.74446334 81.32515732 -29.13052838 79.52937197 -30 77 C-30.495 77.99 -30.495 77.99 -31 79 C-32.45286696 74.35082572 -31.77166711 70.4430814 -30 66 C-27.875 63.5 -27.875 63.5 -26 62 C-26.66 61.34 -27.32 60.68 -28 60 C-28.75 57.5625 -28.75 57.5625 -29 55 C-28.34 54.01 -27.68 53.02 -27 52 C-26.67 51.01 -26.34 50.02 -26 49 C-26.33 48.34 -26.66 47.68 -27 47 C-26.03819688 42.27842105 -25.12436485 38.74957656 -21 36 C-17.75 36.25 -17.75 36.25 -15 37 C-15.66 36.67 -16.32 36.34 -17 36 C-17.625 32.9375 -17.625 32.9375 -18 30 C-18.66 30 -19.32 30 -20 30 C-20.66 30.66 -21.32 31.32 -22 32 C-23 29 -23 29 -22.0625 26.8125 C-21.711875 26.214375 -21.36125 25.61625 -21 25 C-20.34 25.66 -19.68 26.32 -19 27 C-18.731875 26.401875 -18.46375 25.80375 -18.1875 25.1875 C-17 23 -17 23 -15.4375 21.5 C-13.85671571 20.11636491 -13.85671571 20.11636491 -13.625 18.1875 C-12.60834168 14.62919587 -10.58450379 12.58450379 -8 10 C-4.6875 9.125 -4.6875 9.125 -2 9 C-2.33 8.01 -2.66 7.02 -3 6 C-2.34 5.34 -1.68 4.68 -1 4 C-0.3574765 1.93125966 -0.3574765 1.93125966 0 0 Z M-28 73 C-28 74.32 -28 75.64 -28 77 C-27.34 77 -26.68 77 -26 77 C-25.67 76.01 -25.34 75.02 -25 74 C-25.99 73.67 -26.98 73.34 -28 73 Z M7 47 C7.66 48.32 8.32 49.64 9 51 C8.34 50.67 7.68 50.34 7 50 C7 49.01 7 48.02 7 47 Z " fill="#ffffff" transform="translate(238,496)"/>
<path d="M0 0 C9.21262564 4.65853859 17.66202207 9.81750475 24.5703125 17.6171875 C24.5703125 18.2771875 24.5703125 18.9371875 24.5703125 19.6171875 C25.2303125 19.6171875 25.8903125 19.6171875 26.5703125 19.6171875 C30.07273337 24.06745824 32.69277114 29.29748699 34.5703125 34.6171875 C33.5703125 37.6171875 33.5703125 37.6171875 32.5703125 38.6171875 C32.0753125 39.6071875 32.0753125 39.6071875 31.5703125 40.6171875 C27.92558051 41.50812199 25.14288719 41.85384797 21.5703125 40.6171875 C21.7559375 41.1946875 21.9415625 41.7721875 22.1328125 42.3671875 C22.61769817 44.86088522 22.26937672 46.20929963 21.5703125 48.6171875 C21.5703125 49.6071875 21.5703125 50.5971875 21.5703125 51.6171875 C21.5703125 53.28385417 21.5703125 54.95052083 21.5703125 56.6171875 C18.9303125 56.9471875 16.2903125 57.2771875 13.5703125 57.6171875 C13.4671875 58.2565625 13.3640625 58.8959375 13.2578125 59.5546875 C13.0309375 60.2353125 12.8040625 60.9159375 12.5703125 61.6171875 C11.5803125 61.9471875 10.5903125 62.2771875 9.5703125 62.6171875 C7.93354993 64.5772156 7.93354993 64.5772156 6.5703125 66.6171875 C6.2403125 66.9471875 5.9103125 67.2771875 5.5703125 67.6171875 C4.22760429 69.61090575 2.89377756 71.6106437 1.5703125 73.6171875 C2.2303125 73.6171875 2.8903125 73.6171875 3.5703125 73.6171875 C2.9103125 75.2671875 2.2503125 76.9171875 1.5703125 78.6171875 C0.9103125 77.6271875 0.2503125 76.6371875 -0.4296875 75.6171875 C-1.45073301 76.59568945 -2.4502996 77.59699177 -3.4296875 78.6171875 C-3.4296875 80.45066097 -2.25326177 82.01848451 -1.4296875 83.6171875 C-1.0996875 84.2771875 -0.7696875 84.9371875 -0.4296875 85.6171875 C-1.0896875 86.2771875 -1.7496875 86.9371875 -2.4296875 87.6171875 C-2.7596875 86.9571875 -3.0896875 86.2971875 -3.4296875 85.6171875 C-3.6359375 86.1740625 -3.8421875 86.7309375 -4.0546875 87.3046875 C-5.97969524 90.54220052 -8.46819652 92.29949891 -11.4296875 94.6171875 C-12.0896875 93.9571875 -12.7496875 93.2971875 -13.4296875 92.6171875 C-14.4196875 93.6071875 -14.4196875 93.6071875 -15.4296875 94.6171875 C-16.0896875 92.9671875 -16.7496875 91.3171875 -17.4296875 89.6171875 C-17.7596875 90.9371875 -18.0896875 92.2571875 -18.4296875 93.6171875 C-20.94158768 91.10528732 -20.95378571 89.65893937 -21.4921875 86.1796875 C-21.74548828 84.56320312 -21.74548828 84.56320312 -22.00390625 82.9140625 C-22.39150148 79.91286638 -22.62132426 76.94878463 -22.8046875 73.9296875 C-23.64112611 63.74568054 -29.11935141 55.52139381 -36.4296875 48.6171875 C-32.4296875 48.6171875 -32.4296875 48.6171875 -30.1796875 50.6171875 C-29.6021875 51.2771875 -29.0246875 51.9371875 -28.4296875 52.6171875 C-27.1096875 51.9571875 -25.7896875 51.2971875 -24.4296875 50.6171875 C-24.4296875 51.2771875 -24.4296875 51.9371875 -24.4296875 52.6171875 C-23.4396875 52.1221875 -23.4396875 52.1221875 -22.4296875 51.6171875 C-22.4296875 50.6271875 -22.4296875 49.6371875 -22.4296875 48.6171875 C-21.4396875 48.1221875 -21.4396875 48.1221875 -20.4296875 47.6171875 C-19.77755458 45.59255495 -19.77755458 45.59255495 -19.4296875 43.6171875 C-18.4809375 43.6790625 -17.5321875 43.7409375 -16.5546875 43.8046875 C-15.0078125 43.711875 -15.0078125 43.711875 -13.4296875 43.6171875 C-11.58014809 40.84287839 -10.4296875 38.97676487 -10.4296875 35.6171875 C-10.7390625 34.286875 -10.7390625 34.286875 -11.0546875 32.9296875 C-11.50209945 28.97754858 -10.65928415 26.37428837 -9.4296875 22.6171875 C-9.07597252 20.95472709 -8.73373428 19.28944479 -8.4296875 17.6171875 C-9.0896875 17.6171875 -9.7496875 17.6171875 -10.4296875 17.6171875 C-10.7596875 16.2971875 -11.0896875 14.9771875 -11.4296875 13.6171875 C-12.4196875 13.6171875 -13.4096875 13.6171875 -14.4296875 13.6171875 C-15.0896875 12.2971875 -15.7496875 10.9771875 -16.4296875 9.6171875 C-14.1196875 8.9571875 -11.8096875 8.2971875 -9.4296875 7.6171875 C-10.0896875 7.2871875 -10.7496875 6.9571875 -11.4296875 6.6171875 C-13.39791636 4.64895864 -13.09217131 1.26910041 -13.4296875 -1.3828125 C-8.58017374 -2.99931709 -4.66452751 -1.88068649 0 0 Z " fill="#fafafa" transform="translate(70.4296875,219.3828125)"/>
<path d="M0 0 C0 0.66 0 1.32 0 2 C-1.65947267 2.82973634 -3.31899936 3.65936477 -4.97875977 4.48852539 C-6.42286745 5.21115418 -7.86604968 5.93563505 -9.30834961 6.66186523 C-12.83117587 8.43274106 -16.35846481 10.18064488 -19.93359375 11.84375 C-32.23515446 17.61692225 -38.76258314 24.29494687 -43.81640625 37.0625 C-48.74007152 53.58948831 -40.96946248 69.15377237 -34.17822266 83.83764648 C-28.91370313 95.35503933 -26.20711433 106.40949121 -29 119 C-28.30777344 119.08636719 -27.61554687 119.17273438 -26.90234375 119.26171875 C-4.48473839 122.48111135 13.34674323 132.55162129 27.0390625 150.703125 C30.50915826 156.13903855 32.47827384 161.75982799 34 168 C34.185625 168.66515625 34.37125 169.3303125 34.5625 170.015625 C35.8344705 175.78491979 35.37311014 181.59458245 33 187 C32.34 187.66 31.68 188.32 31 189 C31.02618408 188.43192627 31.05236816 187.86385254 31.0793457 187.27856445 C31.66667483 172.56857201 30.94774506 161.26172471 22 149 C22 148.34 22 147.68 22 147 C21.34 147 20.68 147 20 147 C18.95244255 145.85423404 17.96190283 144.6560644 17 143.4375 C4.19317652 128.59203931 -16.42227769 123.42539348 -35 120 C-35 119.34 -35 118.68 -35 118 C-35.7206665 117.94465088 -36.44133301 117.88930176 -37.18383789 117.83227539 C-40.47691091 117.57802592 -43.76970253 117.32029258 -47.0625 117.0625 C-48.19623047 116.97548828 -49.32996094 116.88847656 -50.49804688 116.79882812 C-59.9541974 116.05446642 -59.9541974 116.05446642 -64.06640625 115.40234375 C-67.55040925 114.92451112 -70.54522662 115.44723626 -74 116 C-75 115 -75 115 -75.12025452 112.86766052 C-75.11803391 111.92834183 -75.11581329 110.98902313 -75.11352539 110.02124023 C-75.11344986 108.96021591 -75.11337433 107.89919159 -75.11329651 106.80601501 C-75.10813522 105.651866 -75.10297394 104.49771698 -75.09765625 103.30859375 C-75.0962413 102.13361832 -75.09482635 100.95864288 -75.09336853 99.74806213 C-75.08774992 95.97784936 -75.07519426 92.20769496 -75.0625 88.4375 C-75.0574874 85.88867273 -75.05292408 83.33984453 -75.04882812 80.79101562 C-75.03777444 74.52732367 -75.02101821 68.26366601 -75 62 C-74.34 62.66 -73.68 63.32 -73 64 C-72.34 64 -71.68 64 -71 64 C-70.54625 63.484375 -70.0925 62.96875 -69.625 62.4375 C-69.08875 61.963125 -68.5525 61.48875 -68 61 C-66.0625 61.25 -66.0625 61.25 -64 62 C-62.9790625 62.185625 -62.9790625 62.185625 -61.9375 62.375 C-59.63048568 63.11919817 -58.57325652 64.190755 -57 66 C-55.02 65.01 -55.02 65.01 -53 64 C-53 63.34 -53 62.68 -53 62 C-52.34 62 -51.68 62 -51 62 C-50.67 61.34 -50.34 60.68 -50 60 C-49.01 60.66 -48.02 61.32 -47 62 C-47.14308594 60.47632813 -47.14308594 60.47632813 -47.2890625 58.921875 C-48.40844351 45.71801088 -48.05512306 35.10718408 -40 24 C-39.53464844 23.35160156 -39.06929687 22.70320313 -38.58984375 22.03515625 C-30.89983764 12.24592842 -18.47718105 7.17518065 -7.12890625 2.89453125 C-0.24017467 0 -0.24017467 0 0 0 Z " fill="#ffffff" transform="translate(75,92)"/>
<path d="M0 0 C11.1977449 5.16081886 20.54456714 9.04732362 33 8.6875 C33.90878906 8.67396484 34.81757813 8.66042969 35.75390625 8.64648438 C37.96159752 8.61162609 40.16795298 8.56264544 42.375 8.5 C39.81818176 11.05681824 38.09892252 11.46632919 34.51953125 11.6328125 C28.37633663 11.61840876 22.44696077 11.45246443 16.375 10.5 C17.035 11.16 17.695 11.82 18.375 12.5 C17.859375 12.87125 17.34375 13.2425 16.8125 13.625 C16.338125 14.24375 15.86375 14.8625 15.375 15.5 C15.6225 16.9540625 15.6225 16.9540625 15.875 18.4375 C16.375 21.5 16.375 21.5 14.9375 23.875 C14.421875 24.41125 13.90625 24.9475 13.375 25.5 C14.035 26.49 14.695 27.48 15.375 28.5 C14.88 28.87125 14.385 29.2425 13.875 29.625 C11.78113906 32.24232618 12.23313191 34.23703391 12.375 37.5 C11.375 38.5 11.375 38.5 9.39451599 38.62025452 C8.52625687 38.61803391 7.65799774 38.61581329 6.76342773 38.61352539 C5.78248642 38.61344986 4.8015451 38.61337433 3.7908783 38.61329651 C2.7242244 38.60813522 1.6575705 38.60297394 0.55859375 38.59765625 C-1.07069313 38.59553383 -1.07069313 38.59553383 -2.7328949 38.59336853 C-6.21779075 38.58775048 -9.70262342 38.57519492 -13.1875 38.5625 C-15.54361887 38.55748733 -17.89973874 38.55292402 -20.25585938 38.54882812 C-26.04559464 38.53777519 -31.83529281 38.52101951 -37.625 38.5 C-37.68034912 37.49735107 -37.73569824 36.49470215 -37.79272461 35.46166992 C-38.00138412 31.69121458 -38.21261217 27.92090654 -38.42456055 24.15063477 C-38.51541515 22.52827717 -38.60560131 20.90588197 -38.69506836 19.28344727 C-39.18873889 10.33946098 -39.70991016 1.41319675 -40.625 -7.5 C-25.87038744 -10.56549461 -13.33729467 -6.19231538 0 0 Z " fill="#ffffff" transform="translate(429.625,561.5)"/>
<path d="M0 0 C6.0540894 0.9166403 9.96780448 3.40635953 14 8 C19.91326879 19.44415531 20.32862761 31.45976768 18 44 C9.18755103 43.61641116 0.38548819 43.19015187 -8.375 42.125 C-9.55835937 41.98320312 -10.74171875 41.84140625 -11.9609375 41.6953125 C-15.09488137 40.97829192 -16.69710709 40.20923458 -19 38 C-19.75 35.8125 -19.75 35.8125 -20 34 C-20.99 34.99 -21.98 35.98 -23 37 C-25 36 -25 36 -26 35 C-26 33 -26 33 -25 32 C-24.63837971 30.67405895 -24.30271961 29.34061543 -24 28 C-21 28 -18 28 -15 28 C-14.67 27.01 -14.34 26.02 -14 25 C-13.34 24.67 -12.68 24.34 -12 24 C-11.65977214 22.00116131 -11.32670903 20.00109278 -11 18 C-10.34 17.34 -9.68 16.68 -9 16 C-6.875 16.375 -6.875 16.375 -5 17 C-5 14.37886292 -5.31292445 12.49064888 -6 10 C-4.35 10.99 -2.7 11.98 -1 13 C-0.34 12.34 0.32 11.68 1 11 C1.33 11.99 1.66 12.98 2 14 C2.66 13.01 3.32 12.02 4 11 C6.475 11.495 6.475 11.495 9 12 C9 12.99 9 13.98 9 15 C9.33 14.67 9.66 14.34 10 14 C8.23186986 8.37413137 4.83239156 5.22159437 0 2 C0 1.34 0 0.68 0 0 Z M8 15 C8.33 15.99 8.66 16.98 9 18 C9 17.01 9 16.02 9 15 C8.67 15 8.34 15 8 15 Z M-8 18 C-7.67 18.66 -7.34 19.32 -7 20 C-6.34 19.34 -5.68 18.68 -5 18 C-5.99 18 -6.98 18 -8 18 Z " fill="#ffffff" transform="translate(130,373)"/>
<path d="M0 0 C0.2475 0.639375 0.495 1.27875 0.75 1.9375 C1.80479558 4.11868898 1.80479558 4.11868898 3.8125 4.8125 C6.04922801 5.1190721 6.04922801 5.1190721 8.375 4.4375 C11.72910545 3.87848242 13.83901164 4.87609303 17 6 C17.66 5.67 18.32 5.34 19 5 C20.64149116 5.60268771 22.26318098 6.25944016 23.875 6.9375 C32.69723307 10.07597167 41.76014582 9.32869047 51 9 C48.44318176 11.55681824 46.72392252 11.96632919 43.14453125 12.1328125 C37.00133663 12.11840876 31.07196077 11.95246443 25 11 C25.66 11.66 26.32 12.32 27 13 C26.484375 13.37125 25.96875 13.7425 25.4375 14.125 C24.963125 14.74375 24.48875 15.3625 24 16 C24.2475 17.4540625 24.2475 17.4540625 24.5 18.9375 C25 22 25 22 23.5625 24.375 C23.046875 24.91125 22.53125 25.4475 22 26 C22.66 26.99 23.32 27.98 24 29 C23.505 29.37125 23.01 29.7425 22.5 30.125 C20.40613906 32.74232618 20.85813191 34.73703391 21 38 C20 39 20 39 17.77514648 39.11352539 C16.81680908 39.10828857 15.85847168 39.10305176 14.87109375 39.09765625 C13.31938477 39.09282227 13.31938477 39.09282227 11.73632812 39.08789062 C10.64771484 39.07951172 9.55910156 39.07113281 8.4375 39.0625 C6.7987793 39.05573242 6.7987793 39.05573242 5.12695312 39.04882812 C2.41791505 39.03699826 -0.29101599 39.02051543 -3 39 C-3.33 38.34 -3.66 37.68 -4 37 C-4.33 36.401875 -4.66 35.80375 -5 35.1875 C-6.08980781 32.80354542 -6.57035217 30.577887 -7 28 C-5.68 28 -4.36 28 -3 28 C-3 26.906875 -3 25.81375 -3 24.6875 C-3 10 -3 10 -2 8 C-1.25723969 6.02919843 -1.25723969 6.02919843 -1 4 C-1.66 3.34 -2.32 2.68 -3 2 C-2.01 1.34 -1.02 0.68 0 0 Z " fill="#fcfcfc" transform="translate(421,561)"/>
<path d="M0 0 C-1.25554688 0.01417969 -2.51109375 0.02835938 -3.8046875 0.04296875 C-13.37252831 0.27223011 -20.74022565 0.7308336 -29 6 C-29.99 6.33 -30.98 6.66 -32 7 C-32.33 9.64 -32.66 12.28 -33 15 C-31.02 16.32 -29.04 17.64 -27 19 C-29 22 -29 22 -32 23 C-32.99 22.67 -33.98 22.34 -35 22 C-35 22.33 -35 22.66 -35 23 C-34.34 23.66 -33.68 24.32 -33 25 C-33.625 26.9375 -33.625 26.9375 -35 29 C-38.58589143 29.99184231 -40.44712603 30.18429132 -44 29 C-44.2165625 29.928125 -44.2165625 29.928125 -44.4375 30.875 C-45 33 -45 33 -46 35 C-46.66 35 -47.32 35 -48 35 C-44.25125043 22.21014851 -38.37765491 7.99083576 -26.70703125 0.53515625 C-18.73239508 -3.32176761 -7.70549343 -5.13699562 0 0 Z " fill="#ffffff" transform="translate(543,515)"/>
<path d="M0 0 C9.46187218 8.47016392 16.64267411 18.407492 19.2734375 31.03515625 C19.2734375 32.35515625 19.2734375 33.67515625 19.2734375 35.03515625 C18.6134375 35.03515625 17.9534375 35.03515625 17.2734375 35.03515625 C16.87125 33.63716797 16.87125 33.63716797 16.4609375 32.2109375 C12.95041106 20.57521622 8.11606127 7.70577679 -2.7265625 1.03515625 C-11.63414441 -3.71237849 -19.70049823 -5.25221502 -29.7265625 -4.96484375 C-31.78008167 -4.96484375 -33.83370769 -4.98947739 -35.88671875 -5.03515625 C-46.30864208 -5.18120923 -56.39601238 -4.30398914 -66.7265625 -2.96484375 C-66.7265625 -3.62484375 -66.7265625 -4.28484375 -66.7265625 -4.96484375 C-64.72783511 -5.44929139 -62.72750313 -5.92712035 -60.7265625 -6.40234375 C-59.6128125 -6.66917969 -58.4990625 -6.93601562 -57.3515625 -7.2109375 C-38.97877823 -11.03200147 -15.48205714 -12.11303806 0 0 Z " fill="#ffffff" transform="translate(66.7265625,19.96484375)"/>
<path d="M0 0 C9.94056707 -0.86439714 17.69735932 3.9152101 25.390625 9.8046875 C35.37745241 18.20677883 40.96780372 28.11173032 43 41 C43.28937418 44.65093751 43.33298516 48.27624353 43.3125 51.9375 C43.30976074 52.93297852 43.30702148 53.92845703 43.30419922 54.95410156 C42.99076936 77.51384596 42.99076936 77.51384596 38 85 C37.85659685 75.9656016 38.41464936 67.01021873 39 58 C39.66 57.67 40.32 57.34 41 57 C41.020625 55.700625 41.04125 54.40125 41.0625 53.0625 C41.07410156 52.33160156 41.08570313 51.60070312 41.09765625 50.84765625 C41.20561184 48.98267859 41.20561184 48.98267859 40 48 C39.7869715 46.22827785 39.57963579 44.45563184 39.40527344 42.6796875 C38.22313602 30.84771121 34.90717353 21.11064922 25.73046875 12.9921875 C18.11814516 7.43813166 9.00318069 3.63886331 0 1 C0 0.67 0 0.34 0 0 Z " fill="#ffffff" transform="translate(546,515)"/>
<path d="M0 0 C4.21729001 3.86289589 5.75900619 8.48489831 6.14501953 14.11523438 C6.61306586 28.20961076 6.61306586 28.20961076 5 34 C5.79019531 34.01417969 6.58039063 34.02835937 7.39453125 34.04296875 C28.61039396 34.94009666 48.94288917 41.66301722 64 57 C64.63164062 57.56203125 65.26328125 58.1240625 65.9140625 58.703125 C71.22048252 63.51864273 75.00527154 69.50813797 78 76 C77.67 76.66 77.34 77.32 77 78 C76.5875 77.360625 76.175 76.72125 75.75 76.0625 C73.77065538 73.72970099 72.90201709 73.56168073 70 73 C69.34 72.34 68.68 71.68 68 71 C69.32 71 70.64 71 72 71 C66.81935145 62.5225751 61.28555015 55.10291751 52 51 C51.57074219 50.53980469 51.14148438 50.07960938 50.69921875 49.60546875 C39.73416367 39.24538223 18.13882506 37.77335585 4 35 C4.02094727 34.39115967 4.04189453 33.78231934 4.06347656 33.1550293 C4.64666861 17.14004093 4.64666861 17.14004093 0 2 C0 1.34 0 0.68 0 0 Z " fill="#ffffff" transform="translate(144,383)"/>
<path d="M0 0 C9.41640629 -0.94164063 16.36782317 2.35760454 23.7421875 8.15625 C26.23677194 10.37028847 28.62533137 12.65848556 31 15 C31.62519531 15.55300781 32.25039063 16.10601562 32.89453125 16.67578125 C41.1170177 24.155831 45.94836411 33.8938381 49.5 44.25 C49.75531494 44.9819458 50.01062988 45.7138916 50.27368164 46.46801758 C51.97716691 51.79268053 52.22068756 56.41660481 52 62 C49.94208702 58.0914809 48.80200659 54.05110573 47.625 49.8125 C45.85948365 43.59722243 43.7711958 37.85030224 41 32 C41 31.34 41 30.68 41 30 C40.01 29.67 39.02 29.34 38 29 C37.67 27.35 37.34 25.7 37 24 C36.34 24 35.68 24 35 24 C34.62875 23.319375 34.2575 22.63875 33.875 21.9375 C31.02354247 17.47021654 26.78243862 13.39121931 22 11 C22 10.34 22 9.68 22 9 C21.195625 8.7525 20.39125 8.505 19.5625 8.25 C16.79006253 7.27721492 14.22395287 6.22135166 11.5625 5 C7.75684342 3.27132888 4.04664222 2.03318525 0 1 C0 0.67 0 0.34 0 0 Z " fill="#ffffff" transform="translate(336,492)"/>
<path d="M0 0 C0 0.33 0 0.66 0 1 C-0.99257813 1.08636719 -1.98515625 1.17273438 -3.0078125 1.26171875 C-18.31599889 2.76497317 -18.31599889 2.76497317 -31.85546875 9.45703125 C-35.12858071 11.81200252 -38.77483204 12.93310616 -42.5625 14.25 C-43.33013672 14.53101563 -44.09777344 14.81203125 -44.88867188 15.1015625 C-45.99758789 15.49214844 -45.99758789 15.49214844 -47.12890625 15.890625 C-48.13546265 16.24688965 -48.13546265 16.24688965 -49.16235352 16.61035156 C-51 17 -51 17 -54 16 C-53.35417969 15.74347656 -52.70835937 15.48695313 -52.04296875 15.22265625 C-44.55086763 12.17866989 -37.27250155 8.80362685 -30.02807617 5.21118164 C-20.18880894 0.43305682 -10.93658784 -2.73414696 0 0 Z " fill="#ffffff" transform="translate(335,492)"/>
<path d="M0 0 C1.59134766 0.00676758 1.59134766 0.00676758 3.21484375 0.01367188 C5.80995598 0.02536157 8.40494709 0.04174724 11 0.0625 C10.39671875 0.35898438 9.7934375 0.65546875 9.171875 0.9609375 C6.70460241 2.21232396 4.35988427 3.6203485 2 5.0625 C1.505 4.5675 1.505 4.5675 1 4.0625 C-10.44600752 3.41404371 -21.6657579 4.59324639 -33 6.0625 C-33 5.4025 -33 4.7425 -33 4.0625 C-31.00127261 3.57805236 -29.00094063 3.1002234 -27 2.625 C-25.88625 2.35816406 -24.7725 2.09132813 -23.625 1.81640625 C-15.67051652 0.1620794 -8.10039101 -0.06589805 0 0 Z " fill="#ffffff" transform="translate(33,10.9375)"/>
<path d="M0 0 C0.33 0 0.66 0 1 0 C1.29110762 11.16360403 1.50981303 22.20824253 -0.375 33.25 C-0.50108643 33.9929834 -0.62717285 34.7359668 -0.75708008 35.50146484 C-1.39930738 38.90931604 -2.0509287 41.07639306 -4 44 C-4.14340315 34.9656016 -3.58535064 26.01021873 -3 17 C-2.34 16.67 -1.68 16.34 -1 16 C-0.92345464 11.48382401 -0.89771304 7.40914783 -2 3 C-1.34 3 -0.68 3 0 3 C0 2.01 0 1.02 0 0 Z " fill="#ffffff" transform="translate(588,556)"/>
<path d="M0 0 C-1.25554688 0.01417969 -2.51109375 0.02835938 -3.8046875 0.04296875 C-13.37252831 0.27223011 -20.74022565 0.7308336 -29 6 C-29.99 6.33 -30.98 6.66 -32 7 C-32.6837045 8.32467746 -33.34964186 9.65863633 -34 11 C-34.99 11.66 -35.98 12.32 -37 13 C-35.63434186 7.36666017 -31.47856976 4.29570525 -27 1 C-19.09400412 -3.23535494 -7.87309108 -5.24872739 0 0 Z " fill="#fcfcfc" transform="translate(543,515)"/>
<path d="M0 0 C3.64618902 5.46928353 2.63478799 13.56520537 2 20 C0.52966734 25.99259904 -2.37474117 30.01713823 -7 34 C-7.66 33.67 -8.32 33.34 -9 33 C-8.67 32.38125 -8.34 31.7625 -8 31.125 C-6.85806765 29.08981656 -6.85806765 29.08981656 -7 27 C-6.01 27 -5.02 27 -4 27 C-0.1934517 18.0628866 0.15520458 9.62268395 0 0 Z " fill="#ffffff" transform="translate(85,57)"/>
<path d="M0 0 C0.66 0.33 1.32 0.66 2 1 C-3.58060638 8.51007135 -9.2390596 15.21527375 -18 19 C-18.99 19 -19.98 19 -21 19 C-21 18.34 -21 17.68 -21 17 C-20.28714844 16.64808594 -19.57429688 16.29617188 -18.83984375 15.93359375 C-10.96845202 11.87606612 -5.01074722 7.36874592 0 0 Z " fill="#ffffff" transform="translate(494,551)"/>
<path d="M0 0 C0.99 0 1.98 0 3 0 C3.66 5.94 4.32 11.88 5 18 C-0.53488372 12.46511628 -0.53488372 12.46511628 -1 7 C-1.31674575 5.66262906 -1.64270064 4.32711192 -2 3 C-1.34 3 -0.68 3 0 3 C0 2.01 0 1.02 0 0 Z " fill="#fffbfd" transform="translate(386,550)"/>
<path d="M0 0 C0 0.66 0 1.32 0 2 C-7.92 2.99 -15.84 3.98 -24 5 C-24 4.34 -24 3.68 -24 3 C-15.85956596 0.82576642 -8.4342927 -0.45636453 0 0 Z " fill="#f1f0f1" transform="translate(24,12)"/>
<path d="M0 0 C0.33 0 0.66 0 1 0 C1.4820659 5.52654117 -0.08880075 9.0712208 -2.5 13.875 C-3.00080078 14.90753906 -3.00080078 14.90753906 -3.51171875 15.9609375 C-4.33071727 17.64573446 -5.16393591 19.32360619 -6 21 C-6.66 21 -7.32 21 -8 21 C-7.3807406 17.15920012 -6.2243369 14.01106194 -4.5625 10.5 C-2.93165631 7.03384863 -1.39049999 3.57002788 0 0 Z " fill="#ffffff" transform="translate(105,282)"/>
<path d="M0 0 C0.66 0.33 1.32 0.66 2 1 C1.01 3.97 0.02 6.94 -1 10 C-1.66 10 -2.32 10 -3 10 C-3.103125 10.70125 -3.20625 11.4025 -3.3125 12.125 C-4.09359003 15.39137647 -5.42058743 18.0471852 -7 21 C-7.66 21 -8.32 21 -9 21 C-6.76686274 13.55620912 -3.59727921 6.88023305 0 0 Z " fill="#ffffff" transform="translate(504,529)"/>
<path d="M0 0 C0.33 0 0.66 0 1 0 C1.06058594 0.63808594 1.12117187 1.27617188 1.18359375 1.93359375 C1.26738281 2.75988281 1.35117187 3.58617187 1.4375 4.4375 C1.55931641 5.67306641 1.55931641 5.67306641 1.68359375 6.93359375 C1.78930815 8.98662025 1.78930815 8.98662025 3 10 C3.07226502 11.85287502 3.0838122 13.70833878 3.0625 15.5625 C3.05347656 16.57441406 3.04445313 17.58632813 3.03515625 18.62890625 C3.02355469 19.41136719 3.01195312 20.19382812 3 21 C1.02580067 18.038701 0.54831255 16.47586427 -0.0625 13.0625 C-0.72353892 9.41661199 -0.72353892 9.41661199 -1.6171875 5.82421875 C-2.14088374 3.32864584 -1.28989555 2.12453384 0 0 Z " fill="#eaeaea" transform="translate(585,554)"/>
<path d="M0 0 C2.73902249 2.36551942 3.93170092 4.54857221 5 8 C5.125 10.8125 5.125 10.8125 5 13 C2.4500131 11.72500655 2.34023585 10.81508648 1.375 8.1875 C0.98441406 7.15689453 0.98441406 7.15689453 0.5859375 6.10546875 C0 4 0 4 0 0 Z " fill="#fffaf7" transform="translate(29,152)"/>
<path d="M0 0 C1.32 0.66 2.64 1.32 4 2 C2.515 4.475 2.515 4.475 1 7 C-0.9375 6.6875 -0.9375 6.6875 -3 6 C-3.33 5.01 -3.66 4.02 -4 3 C-3.01 2.67 -2.02 2.34 -1 2 C-0.67 1.34 -0.34 0.68 0 0 Z " fill="#f1eeef" transform="translate(75,86)"/>
<path d="M0 0 C1.62915007 0.20364376 3.25771915 0.4162565 4.87890625 0.67578125 C8.57081967 1.24010687 12.28685227 1.6042677 16 2 C16 2.33 16 2.66 16 3 C13.54137599 3.05383848 11.0839245 3.09359038 8.625 3.125 C7.57699219 3.15013672 7.57699219 3.15013672 6.5078125 3.17578125 C4.67102514 3.19344267 2.83398037 3.10303261 1 3 C0.34 2.34 -0.32 1.68 -1 1 C-0.67 0.67 -0.34 0.34 0 0 Z " fill="#f5f5f5" transform="translate(8,206)"/>
<path d="M0 0 C2.97 0 5.94 0 9 0 C9 0.99 9 1.98 9 3 C5.58900832 3 2.36911686 2.50854594 -1 2 C-0.67 1.34 -0.34 0.68 0 0 Z " fill="#eaeaea" transform="translate(28,12)"/>
<path d="M0 0 C2.20914 3.31371 2.22481553 4.3446021 2.125 8.1875 C2.10695313 9.08855469 2.08890625 9.98960937 2.0703125 10.91796875 C2.03550781 11.94857422 2.03550781 11.94857422 2 13 C1.01 13.33 0.02 13.66 -1 14 C-0.835 12.80375 -0.67 11.6075 -0.5 10.375 C-0.06029433 6.89451285 0.08780713 3.51228512 0 0 Z " fill="#ffffff" transform="translate(88,321)"/>
<path d="M0 0 C0.33 0.99 0.66 1.98 1 3 C1.99 3.33 2.98 3.66 4 4 C-1.625 5.125 -1.625 5.125 -5 4 C-5 3.34 -5 2.68 -5 2 C-3.35 1.34 -1.7 0.68 0 0 Z " fill="#ffffff" transform="translate(45,208)"/>
</svg>
