<?xml version="1.0" standalone="no"?>
<!DOCTYPE svg PUBLIC "-//W3C//DTD SVG 20010904//EN"
 "http://www.w3.org/TR/2001/REC-SVG-20010904/DTD/svg10.dtd">
<svg version="1.0" xmlns="http://www.w3.org/2000/svg"
 width="565.000000pt" height="360.000000pt" viewBox="0 0 565.000000 360.000000"
 preserveAspectRatio="xMidYMid meet">

<g transform="translate(0.000000,360.000000) scale(0.100000,-0.100000)"
fill="#deb887" stroke="#fff">
<path d="M0 3113 l0 -488 65 68 c51 53 71 67 94 67 41 0 77 -46 91 -117 12
-55 9 -227 -6 -385 -6 -62 -5 -68 19 -92 34 -34 80 -34 112 -1 31 30 32 60 4
167 -15 57 -21 113 -22 189 0 60 -2 107 -4 105 -2 -1 -7 -36 -12 -77 l-9 -74
1 97 c2 96 10 125 27 98 8 -12 10 -10 10 7 0 28 35 123 55 149 24 31 35 0 35
-103 0 -63 4 -93 11 -93 9 0 10 23 5 79 -6 77 3 131 23 131 20 0 32 -231 18
-364 -7 -70 1 -96 29 -96 7 0 20 10 28 23 13 20 14 30 1 82 -9 36 -14 114 -15
195 0 117 3 139 20 168 30 48 53 42 91 -25 44 -76 88 -117 184 -166 99 -52
111 -72 153 -252 60 -253 63 -364 21 -655 -15 -101 -20 -169 -15 -194 17 -88
112 -127 169 -70 46 46 46 78 1 359 -30 189 -5 489 58 693 27 89 85 202 103
202 24 0 30 -22 35 -140 3 -69 9 -114 15 -112 6 1 9 42 6 106 -3 105 6 146 33
146 8 0 19 -14 25 -32 18 -52 34 -275 26 -363 -16 -169 -16 -184 10 -201 18
-12 28 -13 44 -4 31 16 35 51 15 127 -27 98 -27 393 -1 441 22 40 61 61 85 46
26 -17 59 -81 93 -184 47 -140 106 -188 182 -149 25 13 57 49 57 64 0 6 -5 3
-10 -5 -19 -29 -11 23 10 65 15 30 19 33 15 13 -3 -14 -7 -34 -11 -45 -3 -10
7 7 23 37 33 63 66 91 112 92 66 2 99 -36 122 -143 13 -58 6 -234 -11 -304 -5
-22 -10 -68 -10 -103 0 -57 3 -67 29 -93 36 -36 54 -36 88 -3 24 25 25 29 19
102 -19 212 -22 367 -9 394 17 35 95 89 124 86 18 -2 33 11 68 59 55 73 68 80
95 53 19 -19 21 -33 21 -143 0 -122 0 -124 35 -118 6 0 7 21 3 54 -4 28 -8 83
-8 120 0 60 3 71 23 88 31 24 53 13 86 -44 48 -81 58 -158 59 -442 2 -239 0
-269 -21 -364 -14 -61 -21 -117 -18 -136 16 -83 123 -99 162 -24 19 38 16 75
-16 224 -18 81 -23 135 -24 285 0 102 -4 165 -7 140 -5 -39 -6 -36 -7 27 -1
39 3 84 9 100 l12 28 7 -25 c6 -24 6 -24 13 7 3 18 16 37 28 44 20 10 26 8 45
-14 36 -42 42 -167 20 -397 -5 -46 10 -72 37 -68 20 3 22 8 20 63 -13 340 -6
396 45 403 33 5 78 -98 92 -214 9 -72 15 -92 36 -110 27 -26 33 -60 9 -50 -22
8 -18 -12 4 -24 30 -16 76 -12 94 8 11 12 17 37 18 68 0 41 16 109 18 80 1 -5
11 6 24 24 12 19 27 35 33 37 21 7 99 -62 130 -115 91 -151 97 -470 18 -932
-40 -233 -42 -319 -8 -385 60 -116 190 -109 223 13 17 60 13 153 -14 289 -31
163 -42 262 -52 498 l-8 190 -5 -195 c-5 -180 -6 -170 -8 123 -1 210 1 316 8
312 6 -3 11 -58 12 -123 l1 -117 8 132 c11 194 29 313 51 335 38 38 64 15 94
-87 20 -67 25 -294 11 -485 -4 -58 -4 -99 -1 -92 11 23 23 12 26 -25 2 -26 8
-38 18 -38 8 0 15 7 15 15 1 8 6 14 12 13 7 -1 9 23 7 70 -6 137 -11 462 -6
443 3 -13 13 0 36 45 18 35 48 90 68 121 22 36 43 90 57 144 11 48 23 90 26
92 3 3 13 -2 23 -12 15 -14 17 -38 17 -164 0 -127 2 -147 16 -150 21 -4 30 37
18 86 -13 55 -10 174 4 202 31 62 61 20 93 -131 16 -74 15 -276 -2 -546 -6
-89 -5 -93 20 -117 41 -42 96 -34 122 17 19 36 15 79 -22 234 -13 57 -27 138
-31 178 -3 41 -9 73 -12 70 -7 -4 -13 54 -15 135 -1 31 3 44 12 43 7 -2 12 7
12 22 0 44 31 105 61 121 26 13 33 13 64 -2 19 -9 45 -33 57 -53 20 -32 23
-49 23 -146 0 -60 -4 -141 -9 -180 -9 -65 -8 -69 7 -56 15 12 17 11 18 -10 1
-13 1 -27 0 -31 -2 -15 27 -8 33 8 3 8 10 13 15 10 5 -4 7 22 5 62 -11 171
-11 282 -2 276 6 -4 8 1 4 13 -9 30 88 183 117 183 5 0 6 -7 3 -16 -12 -31 23
6 51 53 28 48 34 51 54 26 10 -12 14 -49 13 -145 -1 -115 0 -128 16 -128 15 0
17 14 16 145 -1 125 1 146 17 162 16 16 18 16 34 0 15 -14 17 -39 18 -164 0
-82 -3 -174 -6 -207 -6 -66 11 -103 44 -91 25 10 31 48 18 113 -19 99 -23 185
-13 271 15 126 41 129 82 7 54 -163 63 -300 31 -466 -22 -111 -27 -235 -11
-260 6 -11 9 -2 7 30 -1 34 2 45 13 45 20 0 28 -104 9 -116 -21 -13 54 -43 86
-35 44 11 82 60 96 121 10 45 9 76 -6 187 -38 286 -31 346 52 438 52 58 93 80
148 80 l35 0 0 465 0 465 -2825 0 -2825 0 0 -487z m1195 -700 c-24 -106 -30
-160 -34 -313 -6 -179 -6 -182 -14 -95 -14 154 9 521 34 551 11 13 14 13 27 0
14 -13 12 -29 -13 -143z m4191 51 c-13 -42 -16 -74 -12 -123 4 -50 3 -60 -4
-42 -17 40 -18 205 -1 225 10 11 17 14 24 7 7 -7 5 -29 -7 -67z m-3581 40 c26
-17 32 -38 14 -49 -14 -9 -49 24 -49 47 0 22 4 22 35 2z m512 -136 c-2 -13 -4
-3 -4 22 0 25 2 35 4 23 2 -13 2 -33 0 -45z m1803 4 c0 -9 -17 -42 -37 -72
-20 -30 -45 -71 -55 -90 -9 -19 -17 -28 -18 -19 0 8 20 57 45 107 42 87 65
113 65 74z m-2593 -99 c-3 -10 -5 -4 -5 12 0 17 2 24 5 18 2 -7 2 -21 0 -30z
m-1150 -40 c-3 -10 -5 -4 -5 12 0 17 2 24 5 18 2 -7 2 -21 0 -30z m-79 -21 c2
-24 -1 -42 -7 -42 -15 0 -31 34 -31 65 0 20 4 26 18 23 12 -2 18 -15 20 -46z
m72 -16 c0 -8 -4 -18 -10 -21 -5 -3 -10 3 -10 14 0 12 5 21 10 21 6 0 10 -6
10 -14z m1187 -8 c-3 -8 -6 -5 -6 6 -1 11 2 17 5 13 3 -3 4 -12 1 -19z m697
-104 c9 -25 7 -74 -4 -74 -14 0 -30 35 -30 64 0 29 24 36 34 10z m76 -49 c-6
-19 -16 -35 -21 -35 -13 0 -11 13 6 36 8 10 15 28 15 39 1 11 4 14 7 8 2 -7
-1 -29 -7 -48z m3071 -92 c-9 -16 -10 -16 -11 4 0 12 3 30 7 40 7 16 8 16 11
-4 2 -12 -1 -30 -7 -40z m-27 -56 c-6 -17 -34 -31 -43 -21 -3 3 5 14 18 25 26
21 35 20 25 -4z m-2455 -39 c-1 -55 -5 -50 -11 15 -2 20 0 37 4 37 4 0 7 -24
7 -52z m1582 -61 c-8 -8 -11 -3 -11 19 1 25 2 27 11 11 8 -14 8 -22 0 -30z
m-93 -25 c2 -24 -1 -42 -7 -42 -15 0 -31 34 -31 65 0 20 4 26 18 23 12 -2 18
-15 20 -46z m73 -35 c-8 -8 -11 -5 -11 9 0 27 14 41 18 19 2 -9 -1 -22 -7 -28z
m-1621 -6 c13 -25 13 -58 0 -66 -12 -7 -43 53 -36 71 8 20 23 17 36 -5z m96
-18 c-11 -11 -17 4 -9 23 7 18 8 18 11 1 2 -10 1 -21 -2 -24z m-24 -45 c-7 -7
-12 -8 -12 -2 0 14 12 26 19 19 2 -3 -1 -11 -7 -17z m-1865 -66 c16 -10 29
-112 15 -112 -17 0 -42 54 -42 90 0 31 6 36 27 22z m124 -55 c-8 -8 -11 -2
-11 19 0 40 14 54 18 19 2 -15 -1 -32 -7 -38z m-11 -24 c0 -5 -4 -15 -10 -23
-11 -18 -25 -7 -17 15 6 15 27 21 27 8z m2505 -621 c4 -39 5 -72 1 -72 -13 0
-46 66 -46 92 0 15 5 39 12 53 16 36 25 17 33 -73z m130 8 c-4 -17 -11 -30
-16 -30 -11 0 -11 16 -3 60 6 26 9 29 16 16 5 -9 6 -30 3 -46z m-31 -65 c-6
-16 -34 -21 -34 -7 0 13 11 22 26 22 8 0 11 -6 8 -15z"/>
<path d="M2351 2494 c-12 -15 -21 -32 -21 -38 0 -6 6 -2 12 9 6 11 18 28 26
38 8 9 12 17 9 17 -3 0 -15 -12 -26 -26z"/>
</g>
</svg>
