<?xml version="1.0" encoding="UTF-8"?>
<svg version="1.1" xmlns="http://www.w3.org/2000/svg" width="1000" height="1000">
<path d="M0 0 C495 0 990 0 1500 0 C1500 165 1500 330 1500 500 C1005 500 510 500 0 500 C0 335 0 170 0 0 Z " fill="#FEFEFE" transform="translate(0,0)"/>
<path d="M0 0 C1.43956055 -0.01836914 1.43956055 -0.01836914 2.90820312 -0.03710938 C14.81447815 -0.06149083 25.48904654 2.95542586 34.3359375 11.203125 C44.06290272 21.62780502 47.2827322 34.4173148 47.16943359 48.42041016 C45.04487158 98.74529185 12.35118989 147.17073341 -17.75390625 185.53125 C-19.5205258 187.8107591 -21.18418746 190.12124776 -22.8125 192.5 C-23.4725 193.386875 -24.1325 194.27375 -24.8125 195.1875 C-25.4725 195.1875 -26.1325 195.1875 -26.8125 195.1875 C-27.121875 195.80625 -27.43125 196.425 -27.75 197.0625 C-28.4375 198.4375 -29.125 199.8125 -29.8125 201.1875 C-30.4725 201.1875 -31.1325 201.1875 -31.8125 201.1875 C-32.01796448 201.72144379 -32.22342896 202.25538757 -32.43511963 202.80551147 C-33.99234982 205.49852535 -35.9893385 207.41086749 -38.18625259 209.58910179 C-45.24575245 216.8432134 -47.32677378 222.48971851 -47.32452393 232.51351929 C-47.2853599 234.1418572 -47.24486382 235.77016355 -47.203125 237.3984375 C-47.20318148 239.10479533 -47.20854851 240.81116035 -47.21893311 242.51748657 C-47.23198909 246.96085659 -47.17401235 251.40041939 -47.10003662 255.84307861 C-47.0372015 260.39530399 -47.04318056 264.94741726 -47.04296875 269.5 C-47.03261317 278.39702328 -46.94704144 287.29154713 -46.8125 296.1875 C-48.93532669 297.19210531 -51.06083021 298.19105602 -53.1875 299.1875 C-54.37085938 299.744375 -55.55421875 300.30125 -56.7734375 300.875 C-59.8125 302.1875 -59.8125 302.1875 -61.8125 302.1875 C-61.8125 282.7175 -61.8125 263.2475 -61.8125 243.1875 C-78.6425 243.1875 -95.4725 243.1875 -112.8125 243.1875 C-112.8125 260.6775 -112.8125 278.1675 -112.8125 296.1875 C-124.8125 302.1875 -124.8125 302.1875 -127.8125 302.1875 C-128.1425 299.8775 -128.4725 297.5675 -128.8125 295.1875 C-129.52660034 295.72938965 -129.52660034 295.72938965 -130.25512695 296.28222656 C-168.66367078 325.30751592 -221.09045631 359.6599156 -271.65234375 354.68359375 C-281.17734297 353.18832193 -289.58237964 349.68181165 -296.8125 343.1875 C-296.8125 342.5275 -296.8125 341.8675 -296.8125 341.1875 C-297.4725 341.1875 -298.1325 341.1875 -298.8125 341.1875 C-307.47882493 330.69066419 -309.56621979 315.69451095 -308.43530273 302.52709961 C-303.5657512 257.77999899 -279.11245837 216.64109414 -252.8125 181.1875 C-252.04292969 180.14335937 -251.27335937 179.09921875 -250.48046875 178.0234375 C-243.44894562 168.5602292 -236.08751725 159.41617957 -228.40478516 150.47680664 C-225.8403224 147.51741097 -225.8403224 147.51741097 -223.8125 144.1875 C-223.1525 144.1875 -222.4925 144.1875 -221.8125 144.1875 C-221.41720093 143.30892334 -221.41720093 143.30892334 -221.01391602 142.41259766 C-219.76147158 140.09299218 -218.40933426 138.48545369 -216.58984375 136.5859375 C-215.65881836 135.60367188 -215.65881836 135.60367188 -214.70898438 134.6015625 C-214.06251953 133.92867187 -213.41605469 133.25578125 -212.75 132.5625 C-211.46541865 131.21808186 -210.18276898 129.87181453 -208.90234375 128.5234375 C-208.33378662 127.93095215 -207.76522949 127.3384668 -207.17944336 126.72802734 C-205.71866037 125.21576021 -205.71866037 125.21576021 -204.8125 123.1875 C-204.1525 123.1875 -203.4925 123.1875 -202.8125 123.1875 C-202.8125 122.5275 -202.8125 121.8675 -202.8125 121.1875 C-202.1525 121.1875 -201.4925 121.1875 -200.8125 121.1875 C-200.8125 120.5275 -200.8125 119.8675 -200.8125 119.1875 C-200.1525 119.1875 -199.4925 119.1875 -198.8125 119.1875 C-198.8125 118.5275 -198.8125 117.8675 -198.8125 117.1875 C-198.1525 117.1875 -197.4925 117.1875 -196.8125 117.1875 C-196.8125 116.5275 -196.8125 115.8675 -196.8125 115.1875 C-196.1525 115.1875 -195.4925 115.1875 -194.8125 115.1875 C-194.3175 113.7025 -194.3175 113.7025 -193.8125 112.1875 C-193.1525 112.1875 -192.4925 112.1875 -191.8125 112.1875 C-191.585625 111.630625 -191.35875 111.07375 -191.125 110.5 C-189.43699964 107.52590412 -187.34573483 105.46741135 -184.8125 103.1875 C-184.1525 103.1875 -183.4925 103.1875 -182.8125 103.1875 C-182.8125 102.5275 -182.8125 101.8675 -182.8125 101.1875 C-182.1525 101.1875 -181.4925 101.1875 -180.8125 101.1875 C-180.8125 100.5275 -180.8125 99.8675 -180.8125 99.1875 C-179.4140625 97.77734375 -179.4140625 97.77734375 -177.4375 96.125 C-174.23703655 93.40826214 -171.09943937 90.64414781 -168 87.8125 C-163.73775284 83.97065658 -159.37006431 80.29631247 -154.90625 76.69140625 C-152.64268164 74.85940206 -150.39492755 73.01423143 -148.15625 71.15234375 C-138.702596 63.32329671 -128.941411 56.11600738 -118.8125 49.1875 C-118.20116211 48.76404297 -117.58982422 48.34058594 -116.95996094 47.90429688 C-100.74241818 36.67745158 -83.69271034 26.53072038 -65.8125 18.1875 C-64.75434082 17.68742432 -64.75434082 17.68742432 -63.67480469 17.17724609 C-48.21715686 9.91208343 -32.63073527 4.31699759 -15.8125 1.1875 C-15.03084473 1.01476563 -14.24918945 0.84203125 -13.44384766 0.6640625 C-8.98401408 -0.14365648 -4.52079397 0.00299986 0 0 Z M-69.8125 47.1875 C-70.96234375 47.81011719 -72.1121875 48.43273437 -73.296875 49.07421875 C-97.26476009 62.44092389 -119.91663605 78.77535329 -140.67700195 96.69775391 C-144.61698339 100.08974169 -144.61698339 100.08974169 -146.8125 101.1875 C-146.8125 101.8475 -146.8125 102.5075 -146.8125 103.1875 C-147.369375 103.435 -147.92625 103.6825 -148.5 103.9375 C-151.23660913 105.41674818 -153.48900869 107.12217439 -155.8125 109.1875 C-155.8125 109.8475 -155.8125 110.5075 -155.8125 111.1875 C-156.39773438 111.44402344 -156.98296875 111.70054688 -157.5859375 111.96484375 C-160.00484608 113.29312162 -161.54448872 114.75274801 -163.4375 116.75 C-166.61805556 120.09027778 -166.61805556 120.09027778 -168.8125 121.1875 C-168.8125 121.8475 -168.8125 122.5075 -168.8125 123.1875 C-169.4725 123.1875 -170.1325 123.1875 -170.8125 123.1875 C-170.8125 123.8475 -170.8125 124.5075 -170.8125 125.1875 C-171.4725 125.1875 -172.1325 125.1875 -172.8125 125.1875 C-172.8125 125.8475 -172.8125 126.5075 -172.8125 127.1875 C-173.4725 127.1875 -174.1325 127.1875 -174.8125 127.1875 C-176.1766228 128.53687337 -176.1766228 128.53687337 -177.625 130.375 C-181.64860721 135.14340259 -186.05849605 139.46548618 -190.54418945 143.79370117 C-192.00308334 145.22232136 -193.4124677 146.70114992 -194.8125 148.1875 C-194.8125 148.8475 -194.8125 149.5075 -194.8125 150.1875 C-195.4725 150.1875 -196.1325 150.1875 -196.8125 150.1875 C-198.39441818 151.67176233 -198.39441818 151.67176233 -199.9375 153.5625 C-200.47632813 154.18898437 -201.01515625 154.81546875 -201.5703125 155.4609375 C-203.00717147 157.10358428 -203.00717147 157.10358428 -202.8125 159.1875 C-203.4725 159.1875 -204.1325 159.1875 -204.8125 159.1875 C-206.39783702 160.90082754 -207.90791215 162.68439047 -209.375 164.5 C-210.18066406 165.48613281 -210.98632812 166.47226563 -211.81640625 167.48828125 C-213.94893993 170.08045622 -213.94893993 170.08045622 -214.8125 173.1875 C-215.4725 173.1875 -216.1325 173.1875 -216.8125 173.1875 C-218.61426424 175.24520472 -218.61426424 175.24520472 -220.5625 178 C-221.37234371 179.10680897 -222.18224338 180.21357701 -222.9921875 181.3203125 C-223.43916992 181.93551758 -223.88615234 182.55072266 -224.34667969 183.18457031 C-225.92532342 185.34166445 -227.52707782 187.48019086 -229.1328125 189.6171875 C-250.83432324 218.59171844 -270.37346855 250.27601385 -280.8125 285.1875 C-281.13347656 286.23035156 -281.45445312 287.27320313 -281.78515625 288.34765625 C-283.57480223 294.93188867 -284.11115229 301.27342705 -284.1875 308.0625 C-284.20143799 308.85946289 -284.21537598 309.65642578 -284.22973633 310.47753906 C-284.17600708 317.1288017 -282.83192341 321.85739607 -278.375 327 C-271.02259162 332.41567642 -261.08015923 331.46619584 -252.50561523 330.33789062 C-208.37187152 323.61015615 -168.81677075 295.51307797 -134.2265625 268.90234375 C-133.6382666 268.44980225 -133.0499707 267.99726074 -132.44384766 267.53100586 C-131.90550293 267.08764893 -131.3671582 266.64429199 -130.8125 266.1875 C-130.29178925 265.77325775 -129.77107849 265.3590155 -129.23458862 264.93222046 C-127.28571138 262.54119788 -127.43438584 260.99105907 -127.42773438 257.9284668 C-127.41762329 256.85271896 -127.40751221 255.77697113 -127.39709473 254.66862488 C-127.40011597 253.50309586 -127.40313721 252.33756683 -127.40625 251.13671875 C-127.38999573 249.32842339 -127.38999573 249.32842339 -127.37341309 247.4835968 C-127.33907019 243.61401087 -127.32355977 239.74471835 -127.3125 235.875 C-127.29782088 230.81612836 -127.26382759 225.75790097 -127.21875 220.69921875 C-127.22177124 219.55595627 -127.22479248 218.41269379 -127.22790527 217.23478699 C-127.09436998 202.56964595 -124.52995077 191.08976032 -114.3125 180.375 C-105.52624235 172.06834156 -97.10555581 169.68048353 -85.1965332 169.76611328 C-76.05082895 170.07093644 -68.74039349 172.50811377 -62.15234375 179.015625 C-60.85826584 180.40694974 -60.85826584 180.40694974 -58.8125 180.1875 C-58.585625 180.744375 -58.35875 181.30125 -58.125 181.875 C-56.45613942 184.8153734 -54.22461335 186.8377353 -51.8125 189.1875 C-18.44022624 150.42236831 26.44276378 93.57867772 22.76953125 39.4140625 C21.92221135 34.71683942 20.31314549 31.31314549 16.9375 27.9375 C-6.98508722 12.7140354 -48.49729887 35.59928581 -69.8125 47.1875 Z " fill="#EAE7EC" transform="translate(488.8125,13.8125)"/>
<path d="M0 0 C7.87752046 5.70891615 14.55428176 13.94473148 17.08348083 23.49882507 C17.71937739 27.59275891 17.67358284 31.60853081 17.65649414 35.74536133 C17.65664017 36.67268066 17.65678619 37.6 17.65693665 38.55541992 C17.65624144 41.61249146 17.64846739 44.66950164 17.640625 47.7265625 C17.63875943 49.84933946 17.63733618 51.97211686 17.63633728 54.09489441 C17.63252308 59.67619012 17.62270214 65.25745971 17.6116333 70.83874512 C17.60139561 76.53637336 17.59683461 82.23400583 17.59179688 87.93164062 C17.5810789 99.10678229 17.56401562 110.2819046 17.54296875 121.45703125 C16.33740271 122.08735258 15.12833686 122.71098095 13.91796875 123.33203125 C12.90863281 123.85410156 12.90863281 123.85410156 11.87890625 124.38671875 C9.18690412 125.62017792 6.3521443 126.5206394 3.54296875 127.45703125 C3.54296875 107.98703125 3.54296875 88.51703125 3.54296875 68.45703125 C-13.28703125 68.45703125 -30.11703125 68.45703125 -47.45703125 68.45703125 C-47.45703125 85.94703125 -47.45703125 103.43703125 -47.45703125 121.45703125 C-56.45703125 125.95703125 -56.45703125 125.95703125 -61.45703125 126.45703125 C-61.52661244 113.42646687 -61.5798839 100.39594686 -61.61246777 87.36523438 C-61.62810819 81.3142235 -61.64931711 75.26333995 -61.68334961 69.21240234 C-61.71600051 63.3703995 -61.73389647 57.52851895 -61.74166298 51.68643188 C-61.74719616 49.46015498 -61.75800111 47.2338846 -61.77422142 45.00765991 C-61.79607151 41.88386692 -61.79899496 38.76057615 -61.79760742 35.63671875 C-61.80839325 34.72105637 -61.81917908 33.80539398 -61.83029175 32.86198425 C-61.77738109 21.81761039 -57.12469007 13.04440866 -49.51953125 5.20703125 C-36.04245027 -7.64145453 -15.9919904 -10.04266488 0 0 Z " fill="#4B4B4B" transform="translate(423.45703125,188.54296875)"/>
<path d="M0 0 C0.65355469 0.4125 1.30710937 0.825 1.98046875 1.25 C3.00720703 1.86875 3.00720703 1.86875 4.0546875 2.5 C11.23891474 7.31685331 16.55226651 14.18522953 18.57272339 22.65335083 C19.47443739 28.3957458 19.22072824 34.23356615 19.17578125 40.03125 C19.17204481 41.45470988 19.16920082 42.87817236 19.16720581 44.30163574 C19.159619 48.02359284 19.14001394 51.74539047 19.11779785 55.46728516 C19.09723189 59.27504317 19.08818125 63.08282729 19.078125 66.890625 C19.05676264 74.3438222 19.0226876 81.79688864 18.98046875 89.25 C17.40239275 90.09324672 15.81776455 90.92423918 14.23046875 91.75 C12.90789063 92.44609375 12.90789063 92.44609375 11.55859375 93.15625 C8.98046875 94.25 8.98046875 94.25 4.98046875 94.25 C4.98046875 78.41 4.98046875 62.57 4.98046875 46.25 C-8.14569282 51.49285089 -8.14569282 51.49285089 -21.01953125 57.25 C-21.79425781 57.59933594 -22.56898438 57.94867188 -23.3671875 58.30859375 C-28.66142127 60.69932832 -28.66142127 60.69932832 -32.01953125 65.25 C-32.43213094 69.03216379 -32.3447094 71.49695586 -30.83203125 75 C-28.08456916 78.41064259 -25.47306711 80.08763695 -21.08203125 80.578125 C-20.07140625 80.55234375 -19.06078125 80.5265625 -18.01953125 80.5 C-17.00890625 80.48453125 -15.99828125 80.4690625 -14.95703125 80.453125 C-12.22594885 80.26427356 -9.6853634 79.85765292 -7.01953125 79.25 C-2.94075663 87.28501094 -2.94075663 87.28501094 -3.26953125 91.3125 C-3.51703125 91.951875 -3.76453125 92.59125 -4.01953125 93.25 C-12.81458251 96.56155131 -22.12839576 96.94616539 -30.76635742 93.09741211 C-38.37958501 89.2820969 -42.6614199 85.2587893 -46.89453125 78.0625 C-48.95675226 71.07386212 -49.37829758 64.07560237 -46.01953125 57.4375 C-39.27093604 47.17593743 -30.23677704 44.07271365 -19.13427734 40.04785156 C-16.36128944 39.00165848 -13.69429397 37.77442332 -11.01953125 36.5 C-6.1538452 34.21425911 -1.20753521 32.63421798 3.98046875 31.25 C3.08060643 24.45402488 2.0729769 19.99529169 -3.01953125 15.25 C-7.50111366 12.04886971 -11.81507011 11.61195683 -17.1953125 11.7734375 C-22.05302472 12.59313445 -25.53102522 14.8293051 -29.01953125 18.25 C-31.08592355 21.91617989 -31.9461388 24.71790476 -32.51953125 28.875 C-34.63911039 33.64405306 -37.71361817 34.46552734 -42.390625 36.40234375 C-45.01953125 37.25 -45.01953125 37.25 -48.01953125 37.25 C-48.6144715 25.65968244 -46.93599605 17.53093777 -39.26953125 8.58203125 C-28.91441992 -2.15061018 -14.1769569 -7.66034444 0 0 Z " fill="#4E4E4E" transform="translate(654.01953125,220.75)"/>
<path d="M0 0 C20.79 0 41.58 0 63 0 C54.99750596 16.00498809 54.99750596 16.00498809 51.0625 22.5 C50.20238249 23.9409633 49.34301831 25.38237651 48.484375 26.82421875 C48.06607422 27.52466309 47.64777344 28.22510742 47.21679688 28.94677734 C45.3788988 32.04804597 43.59291072 35.17798025 41.8125 38.3125 C36.42289263 47.77665054 30.93403386 57.17544398 25.28344727 66.48608398 C22.39539369 71.26751209 19.718699 76.1063418 17 81 C32.18 81 47.36 81 63 81 C61 88 61 88 58 95 C36.22 95 14.44 95 -8 95 C-4.63906856 87.15782665 -4.63906856 87.15782665 -2.25 83.3125 C0.02099331 79.60601463 2.25175246 75.88252105 4.4375 72.125 C5.02402344 71.11695313 5.61054687 70.10890625 6.21484375 69.0703125 C6.80394531 68.05710937 7.39304687 67.04390625 8 66 C9.16634363 63.9998116 10.3330087 61.9998106 11.5 60 C12.0775 59.01 12.655 58.02 13.25 57 C18.5 48 18.5 48 20.2578125 44.98828125 C21.40038925 43.02848033 22.54108102 41.06757898 23.6796875 39.10546875 C28.37678286 31.02083687 33.18771611 23.02047315 38 15 C23.81 14.67 9.62 14.34 -5 14 C-3.43297876 9.29893629 -1.84037311 4.60093277 0 0 Z " fill="#4B4B4B" transform="translate(731,219)"/>
<path d="M0 0 C2.33333915 5.72354595 4.66266529 11.44870369 6.98852539 17.17529297 C7.77782896 19.11713083 8.56816652 21.05854877 9.35961914 22.99951172 C13.42957616 32.98261946 17.46956321 42.94363357 20.96582031 53.14501953 C22.3605715 56.99540206 24.05749917 60.67447608 25.796875 64.37890625 C27.69767116 68.51992646 29.34244377 72.75734582 31 77 C31.50285522 75.52358032 31.50285522 75.52358032 32.01586914 74.01733398 C36.08938619 62.19637228 40.69747638 50.62958036 45.4375 39.0625 C46.89655696 35.49170969 48.35325755 31.91996453 49.80859375 28.34765625 C50.15989349 27.48604889 50.51119324 26.62444153 50.87313843 25.73672485 C54.34590719 17.19536764 57.68874829 8.60504884 61 0 C65.80459553 1.56335468 69.68434788 3.41060873 74 6 C72.07902053 12.7982832 69.80007021 19.33892457 67.125 25.875 C66.59447021 27.18525146 66.59447021 27.18525146 66.05322266 28.52197266 C65.04091189 31.01690941 64.02208817 33.50905523 63 36 C62.53078125 37.1446875 62.0615625 38.289375 61.578125 39.46875 C59.4952361 44.50014396 57.35003382 49.50240174 55.1875 54.5 C53.03035158 59.50369478 50.97967574 64.53804501 48.98193359 69.60742188 C47.63522417 73.01480448 46.26465684 76.41217809 44.88574219 79.80664062 C44.14069304 81.65160245 43.41564609 83.50462384 42.6953125 85.359375 C40.73758456 89.92290633 39.18842742 92.34526192 34.625 94.5 C33.09771778 95.04235148 31.55532699 95.54426535 30 96 C29.29488281 96.22171875 28.58976563 96.4434375 27.86328125 96.671875 C26.25378528 97.15505026 24.62822452 97.5842831 23 98 C20.17004409 92.09924087 17.65003875 86.18392096 15.5 80 C14.01226745 75.72276891 12.42810373 71.59722042 10.5 67.5 C8.03217486 62.25587158 6.15264896 56.87636577 4.25 51.40625 C3.12884839 48.35111185 1.88475827 45.44261132 0.5 42.5 C-1.9635235 37.26501256 -3.84334736 31.8972274 -5.734375 26.43359375 C-6.92185565 23.21200272 -8.2717164 20.15924927 -9.75 17.0625 C-11.69271779 12.9456435 -12.6977345 9.53398251 -13 5 C-11.21046815 4.16209211 -9.41830305 3.32980604 -7.625 2.5 C-6.62726563 2.0359375 -5.62953125 1.571875 -4.6015625 1.09375 C-2 0 -2 0 0 0 Z " fill="#4E4E4E" transform="translate(490,218)"/>
<path d="M0 0 C6.73511635 4.04959528 12.26461461 9.82794267 14.625 17.4375 C15.09555614 22.28640001 15.00256552 27.07194778 14.875 31.9375 C14.7925 36.3925 14.71 40.8475 14.625 45.4375 C-2.205 45.4375 -19.035 45.4375 -36.375 45.4375 C-36.4575 40.9825 -36.54 36.5275 -36.625 31.9375 C-36.66141602 30.54853516 -36.69783203 29.15957031 -36.73535156 27.72851562 C-36.81158943 19.20462983 -35.9264193 14.13890269 -30.734375 7.265625 C-22.2807561 -1.02384596 -11.63219661 -5.22769925 0 0 Z " fill="#FEFEFE" transform="translate(412.375,197.5625)"/>
<path d="M0 0 C14.19 0 28.38 0 43 0 C36.06896552 8.0862069 36.06896552 8.0862069 33.25 10.9375 C32.39148438 11.81728516 32.39148438 11.81728516 31.515625 12.71484375 C30 14 30 14 28 14 C28 14.66 28 15.32 28 16 C26.3203125 17.7265625 26.3203125 17.7265625 24.125 19.625 C23.40570313 20.25664062 22.68640625 20.88828125 21.9453125 21.5390625 C20 23 20 23 18 23 C18 23.66 18 24.32 18 25 C16.36896408 26.50126091 14.66782355 27.92684386 12.9375 29.3125 C11.52791016 30.45138672 11.52791016 30.45138672 10.08984375 31.61328125 C6.79111376 34.16135208 3.39184224 36.57725554 0 39 C0 26.13 0 13.26 0 0 Z " fill="#EBE8ED" transform="translate(376,257)"/>
<path d="M0 0 C0 9.24 0 18.48 0 28 C-8.91 28 -17.82 28 -27 28 C-20.32096475 20.20779221 -20.32096475 20.20779221 -17.1875 17.1875 C-14.7530483 14.84612129 -14.7530483 14.84612129 -13 12 C-12.34 12 -11.68 12 -11 12 C-10.75378906 11.42765625 -10.50757813 10.8553125 -10.25390625 10.265625 C-8.79788765 7.63481257 -7.08222766 5.85191095 -4.9375 3.75 C-4.22464844 3.04359375 -3.51179688 2.3371875 -2.77734375 1.609375 C-1 0 -1 0 0 0 Z " fill="#EAE7EC" transform="translate(427,215)"/>
<path d="M0 0 C2.64 0 5.28 0 8 0 C5.61042731 3.24299151 3.7952131 5.50902342 0 7 C0 4.69 0 2.38 0 0 Z " fill="#FFFFFF" transform="translate(376,257)"/>
</svg>
