<?xml version="1.0" encoding="UTF-8"?>
<svg version="1.1" xmlns="http://www.w3.org/2000/svg" width="1000" height="1000">
<path d="M0 0 C1.45362165 1.18730575 2.89385749 2.39094479 4.33325195 3.59545898 C5.10282227 4.22452148 5.87239258 4.85358398 6.6652832 5.50170898 C27.83955356 23.31562669 42.89375039 51.60722457 46.11791992 79.0769043 C48.80474355 110.5023834 43.12135034 142.24195792 23.33325195 167.59545898 C24.69643555 167.72500977 24.69643555 167.72500977 26.0871582 167.85717773 C49.50452032 170.47511873 71.13706158 181.2388824 86.33325195 199.59545898 C102.16309878 220.77623996 109.38527812 244.66959018 106.00805664 271.14477539 C102.21260066 294.20840391 89.93442248 315.96271149 70.95825195 329.97045898 C59.17606914 337.89080342 47.29253236 343.79359625 33.33325195 346.59545898 C32.40770508 346.78624023 31.4821582 346.97702148 30.52856445 347.17358398 C17.37879644 348.90973917 4.12524894 347.9182582 -8.66674805 344.59545898 C-9.5175293 344.41370117 -10.36831055 344.23194336 -11.24487305 344.04467773 C-23.54820519 341.05032372 -35.3884198 332.95098786 -44.66674805 324.59545898 C-45.34866211 323.99475586 -46.03057617 323.39405273 -46.7331543 322.77514648 C-61.77012918 308.70924826 -72.72098024 286.90861973 -73.7890625 266.22705078 C-74.35007064 248.17479179 -71.92530577 233.15624601 -64.66674805 216.59545898 C-65.27969727 216.58087646 -65.89264648 216.56629395 -66.52416992 216.55126953 C-98.63428492 215.7016844 -128.18614726 208.51901071 -152.66674805 186.59545898 C-154.06170012 185.44855296 -155.45742121 184.30258098 -156.85424805 183.15795898 C-157.78237305 182.31233398 -158.71049805 181.46670898 -159.66674805 180.59545898 C-159.66674805 179.93545898 -159.66674805 179.27545898 -159.66674805 178.59545898 C-160.32674805 178.59545898 -160.98674805 178.59545898 -161.66674805 178.59545898 C-185.32847119 154.08331451 -194.45590263 122.00442068 -193.97924805 88.67358398 C-193.12509706 62.09525239 -182.47018165 37.87546505 -165.66674805 17.59545898 C-165.03639648 16.82331055 -164.40604492 16.05116211 -163.7565918 15.25561523 C-123.89216961 -32.05500882 -47.87823251 -38.18746258 0 0 Z " fill="#e3e3e3" transform="translate(265.666748046875,336.404541015625)"/>
<path d="M0 0 C0.77730469 0.50144531 1.55460938 1.00289063 2.35546875 1.51953125 C15.38204845 10.73454718 22.58215142 25.04548851 25.4921875 40.3984375 C27.66713896 55.82386249 24.93210933 71.03658469 16 84 C13.18414173 87.53523811 10.18898345 90.7997081 7 94 C6.45859375 94.56460938 5.9171875 95.12921875 5.359375 95.7109375 C-5.71483211 106.28177156 -21.65060261 110.52673934 -36.56811523 110.42211914 C-51.57968207 109.90980764 -66.15782633 103.3791627 -77 93 C-88.9467139 79.32982573 -94.81807515 63.82219711 -94.34765625 45.578125 C-93.29831622 34.7781759 -89.89340601 25.07555986 -84 16 C-83.24783203 14.83210938 -83.24783203 14.83210938 -82.48046875 13.640625 C-74.27816129 2.06559258 -60.84322709 -6.08171701 -47.125 -9.375 C-30.4774421 -11.95268638 -14.16592884 -9.33098662 0 0 Z " fill="#e3e3e3" transform="translate(958,442)"/>
<path d="M0 0 C0 31.68 0 63.36 0 96 C-13.2 96 -26.4 96 -40 96 C-40.12032643 78.43234151 -40.12032643 78.43234151 -40.14648438 70.89453125 C-40.16435845 65.76829614 -40.18541267 60.6422231 -40.22631836 55.51611328 C-40.25911939 51.37934986 -40.27689635 47.24276045 -40.28463173 43.10587692 C-40.29013826 41.53435913 -40.30089037 39.96284992 -40.31719017 38.39140701 C-40.42702256 27.35510201 -40.27495316 16.98670684 -33 8 C-23.4320018 -1.05080911 -12.78780443 0 0 0 Z " fill="#e3e3e3" transform="translate(427,504)"/>
<path d="M0 0 C23.56280562 0 23.56280562 0 32.34765625 7.34765625 C40.14907982 15.14907982 40.20619907 26.21532165 40.23219109 36.64548206 C40.22645228 38.81972561 40.21108132 40.9937768 40.1953125 43.16796875 C40.19157351 44.69924228 40.18873073 46.23051824 40.18673706 47.76179504 C40.17917026 51.75496244 40.15958321 55.74797993 40.1373291 59.74108887 C40.11308343 64.55205437 40.10405651 69.36307054 40.09242249 74.1740799 C40.0731534 81.44949025 40.03478292 88.72457291 40 96 C26.8 96 13.6 96 0 96 C0 64.32 0 32.64 0 0 Z " fill="#e3e3e3" transform="translate(439,504)"/>
<path d="M0 0 C1.15177734 0.03158203 2.30355469 0.06316406 3.49023438 0.09570312 C6.3087059 0.17756744 9.12170926 0.29215856 11.9375 0.4375 C12.05478126 4.10389248 12.12510891 7.7697952 12.1875 11.4375 C12.22101563 12.46746094 12.25453125 13.49742187 12.2890625 14.55859375 C12.38372172 21.98934244 11.48918757 27.30883718 6.56689453 33.03076172 C5.05947031 34.55811882 3.49798466 35.97140903 1.875 37.375 C1.29991699 37.88877197 0.72483398 38.40254395 0.13232422 38.93188477 C-4.17868212 42.75324741 -8.61692766 46.41375114 -13.109375 50.01953125 C-17.32276955 53.46938737 -21.41266212 57.05736572 -25.49755859 60.65795898 C-26.70230178 61.71280703 -27.9173446 62.7559951 -29.1418457 63.7878418 C-30.48699436 64.94319574 -31.79313002 66.14481677 -33.06713867 67.37817383 C-38.47816139 72.25951514 -42.50279311 73.20130355 -49.74023438 73.05273438 C-50.85720703 72.99408203 -51.97417969 72.93542969 -53.125 72.875 C-54.27677734 72.84341797 -55.42855469 72.81183594 -56.61523438 72.77929688 C-59.4337059 72.69743256 -62.24670926 72.58284144 -65.0625 72.4375 C-65.20898406 68.60457559 -65.29696464 64.77238047 -65.375 60.9375 C-65.41689453 59.85984375 -65.45878906 58.7821875 -65.50195312 57.671875 C-65.6405625 48.57910027 -63.50670721 44.0642798 -57.3359375 37.56640625 C-56.37945313 36.71949219 -55.42296875 35.87257813 -54.4375 35 C-53.91389893 34.53319824 -53.39029785 34.06639648 -52.85083008 33.58544922 C-48.68324295 29.89948622 -44.38519087 26.37822522 -40.05078125 22.890625 C-35.82919942 19.42506501 -31.72485901 15.82863433 -27.62768555 12.21728516 C-26.42286614 11.16234995 -25.20774316 10.11907885 -23.9831543 9.0871582 C-22.63800564 7.93180426 -21.33186998 6.73018323 -20.05786133 5.49682617 C-13.67037637 -0.26539215 -8.37325881 -0.43968064 0 0 Z " fill="#e3e3e3" transform="translate(800.0625,527.5625)"/>
<path d="M0 0 C12.87 0 25.74 0 39 0 C39 23.76 39 47.52 39 72 C14.43075802 72 14.43075802 72 6.53515625 65.59765625 C-1.61673366 57.11388278 -0.9258176 45.9987765 -1 35 C-1.01355352 33.64583049 -1.02740785 32.29166397 -1.04150391 30.9375 C-1.08511254 26.43753438 -1.10969235 21.93764517 -1.125 17.4375 C-1.12795074 16.68951141 -1.13090149 15.94152283 -1.13394165 15.17086792 C-1.13967261 13.02922233 -1.13769027 10.8877387 -1.1328125 8.74609375 C-1.13168457 7.49497803 -1.13055664 6.2438623 -1.12939453 4.95483398 C-1 2 -1 2 0 0 Z " fill="#e3e3e3" transform="translate(670,528)"/>
<path d="M0 0 C0 23.76 0 47.52 0 72 C-13.59209003 72 -23.1713645 71.2913069 -33 62 C-40.30823862 54.23380387 -41.49482293 44.65814669 -41.42163086 34.40112305 C-41.09096948 24.5587635 -38.28525519 14.95904973 -31 8 C-20.56240618 0.2710049 -13.44386983 0 0 0 Z " fill="#e3e3e3" transform="translate(660,528)"/>
<path d="M0 0 C1.86785156 0.01353516 1.86785156 0.01353516 3.7734375 0.02734375 C5.18496094 0.04474609 5.18496094 0.04474609 6.625 0.0625 C6.70004832 5.23621573 6.75401911 10.40960361 6.78979492 15.58374023 C6.80473392 17.33802827 6.82509262 19.09227994 6.85131836 20.84643555 C7.08083055 36.61077293 6.50209045 52.11456481 -4.59765625 64.45703125 C-11.02450445 70.26238204 -17.64883371 72.20976166 -26.125 72.125 C-27.29546875 72.11597656 -28.4659375 72.10695313 -29.671875 72.09765625 C-31.00992188 72.08025391 -31.00992188 72.08025391 -32.375 72.0625 C-32.45140051 64.96418189 -32.50374659 57.86597082 -32.53979492 50.76733398 C-32.55483145 48.3551843 -32.57526599 45.94306172 -32.60131836 43.53100586 C-32.63792732 40.05315436 -32.65477829 36.57566606 -32.66796875 33.09765625 C-32.68345261 32.02854507 -32.69893646 30.9594339 -32.71488953 29.85792542 C-32.71659365 22.18402811 -31.72204005 15.74926678 -27.5546875 9.203125 C-25.04240216 6.73586269 -22.66709794 5.34366694 -19.5 3.8125 C-18.49195313 3.31234375 -17.48390625 2.8121875 -16.4453125 2.296875 C-11.00351533 0.10907868 -5.82119719 -0.05491695 0 0 Z " fill="#e3e3e3" transform="translate(586.375,527.9375)"/>
<path d="M0 0 C2.20952691 -0.03402471 4.41920795 -0.05811868 6.62890625 -0.078125 C7.85939697 -0.09262695 9.0898877 -0.10712891 10.35766602 -0.12207031 C18.16746362 0.13966967 25.70268555 2.33998731 32 7 C38.67191191 15.14862841 39.29443017 23.46636771 39.1953125 33.62109375 C39.1924826 34.72099136 39.18965271 35.82088898 39.18673706 36.95411682 C39.1755898 40.44869103 39.15049498 43.94300394 39.125 47.4375 C39.11496316 49.81444941 39.10583854 52.19140286 39.09765625 54.56835938 C39.07566831 60.3789946 39.0422451 66.18947862 39 72 C36.94419205 72.04250269 34.88812628 72.07263597 32.83203125 72.09765625 C31.68710205 72.11578369 30.54217285 72.13391113 29.36254883 72.15258789 C21.60367965 71.80050096 15.31557891 68.32021203 9.75 63.03515625 C-0.91874218 50.62798063 -0.40980825 34.11024187 -0.1875 18.75 C-0.17241988 16.92579235 -0.15873739 15.10157258 -0.14648438 13.27734375 C-0.11375617 8.85125813 -0.06215964 4.42576611 0 0 Z " fill="#e3e3e3" transform="translate(503,528)"/>
<path d="M0 0 C11.55 0 23.1 0 35 0 C29.48591831 5.51408169 23.8155391 10.80964969 18 16 C17.06671875 16.83402344 16.1334375 17.66804687 15.171875 18.52734375 C14.31078125 19.26082031 13.4496875 19.99429688 12.5625 20.75 C11.80066406 21.40484375 11.03882813 22.0596875 10.25390625 22.734375 C8 24 8 24 5.35546875 23.87890625 C1.80145991 22.55278355 0.78393405 20.24930844 -1 17 C-3.25633602 11.17113195 -1.91291071 5.73873213 0 0 Z " fill="#e3e3e3" transform="translate(734,528)"/>
<path d="M0 0 C5.05779895 3.59665703 7.94287051 6.7514227 9 13 C8.95978552 23.04021448 8.95978552 23.04021448 7 25 C4.40640678 25.08851529 1.83960309 25.11525945 -0.75390625 25.09765625 C-1.52935287 25.0962413 -2.3047995 25.09482635 -3.10374451 25.09336853 C-5.59003494 25.08775345 -8.0762366 25.07519846 -10.5625 25.0625 C-12.24413933 25.05748694 -13.92578006 25.0529237 -15.60742188 25.04882812 C-19.73831566 25.03777913 -23.86914276 25.02050445 -28 25 C-25.24214552 22.21175512 -22.48615228 19.47078003 -19.51171875 16.9140625 C-18.89111572 16.37869873 -18.2705127 15.84333496 -17.63110352 15.29174805 C-16.98971436 14.74172119 -16.3483252 14.19169434 -15.6875 13.625 C-14.35665481 12.47799918 -13.02592471 11.33086482 -11.6953125 10.18359375 C-11.06012695 9.63687012 -10.42494141 9.09014648 -9.77050781 8.52685547 C-6.49690666 5.70375817 -3.24740344 2.85314999 0 0 Z " fill="#e3e3e3" transform="translate(805,575)"/>
</svg>
